<mxfile host="65bd71144e">
    <diagram name="classes" id="T04jiVfKLJ1x2FZM-1_Q">
        <mxGraphModel dx="1008" dy="608" grid="1" gridSize="10" guides="1" tooltips="1" connect="1" arrows="1" fold="1" page="1" pageScale="1" pageWidth="1100" pageHeight="850" math="0" shadow="0">
            <root>
                <mxCell id="FZ2FZ6DYbbDXQQriU7j4-0"/>
                <mxCell id="FZ2FZ6DYbbDXQQriU7j4-1" value="Main" style="" parent="FZ2FZ6DYbbDXQQriU7j4-0"/>
                <mxCell id="13" value="" style="rounded=0;whiteSpace=wrap;html=1;strokeColor=#5C068C;fillColor=none;" parent="FZ2FZ6DYbbDXQQriU7j4-1" vertex="1">
                    <mxGeometry x="520" y="80" width="160" height="400" as="geometry"/>
                </mxCell>
                <mxCell id="0" value="Web browser" style="shape=image;imageAspect=0;aspect=fixed;verticalLabelPosition=bottom;verticalAlign=top;strokeColor=default;fillColor=default;image=data:image/svg+xml,PHN2ZyB4bWxucz0iaHR0cDovL3d3dy53My5vcmcvMjAwMC9zdmciIHZpZXdCb3g9IjAgLTAuMDAwMDA5NTQxMjUzMzQ4Mjg4NTkyIDUxMiA1MTIiIHhtbDpzcGFjZT0icHJlc2VydmUiIHdpZHRoPSI1MTIiIGhlaWdodD0iNTEyIj48cGF0aCBkPSJNMjU2IDBjMTQxLjM1NSAwIDI1NiAxMTQuNjQ1IDI1NiAyNTZTMzk3LjM1NSA1MTIgMjU2IDUxMiAwIDM5Ny4zNTUgMCAyNTYgMTE0LjY0NSAwIDI1NiAweiIgZmlsbD0iI2U5ZGRmMCIgY2xhc3M9ImZpbGwtMDBiY2Q1IGZpbGwtZTlkZGYwIi8+PHBhdGggZD0iTTM2OS4xNDMgMzUyLjkzOHYyLjEwMWMwIDIwLjQwOS01MS4wMTggMzYuOTE2LTExNC4wNDIgMzYuOTE2LTYzLjAyNSAwLTExNC4wNDYtMTYuNTA3LTExNC4wNDYtMzYuOTE2IDAtLjkgMC0xLjQ5OC4zMDEtMi4xMDEtLjMwMS0uNTk5LS4zMDEtMS4yMDEtLjMwMS0xLjggMC0yMC43MDcgNTEuMDIxLTM3LjIxMyAxMTQuMDQ2LTM3LjIxMyA2My4wMjQgMCAxMTQuMDQyIDE2LjUwNiAxMTQuMDQyIDM3LjIxM3YxLjh6IiBmaWxsPSIjNWMwNjhjIiBjbGFzcz0iZmlsbC03NTc1NzUgZmlsbC01YzA2OGMiLz48cGF0aCBkPSJNMzY5LjE0MyAzNTIuOTM4djIuMTAxYzAgMjAuNDA5LTUxLjAxOCAzNi45MTYtMTE0LjA0MiAzNi45MTZoLTguMTA1di03OC4wMjloOC4xMDVjNjMuMDI0IDAgMTE0LjA0MiAxNi41MDYgMTE0LjA0MiAzNy4yMTN2MS43OTl6IiBmaWxsPSIjNWMwNjhjIiBjbGFzcz0iZmlsbC02OTY5NjkgZmlsbC01YzA2OGMiLz48cGF0aCBkPSJNMjQ2Ljk5NiAzMTMuOTI1aDguMTA1YzYwLjkyNSAwIDExMC40NDMgMTUuNjAzIDExMy43NDQgMzUuMTEzLTMuMzAxIDE5LjUwNi01Mi44MTkgMzUuMTEyLTExMy43NDQgMzUuMTEyaC04LjEwNXYtNzAuMjI1eiIgZmlsbD0iIzVjMDY4YyIgY2xhc3M9ImZpbGwtNzU3NTc1IGZpbGwtNWMwNjhjIi8+PHBhdGggZD0iTTI1NS4xMDEgMzA5LjcyYzYyLjk4NCAwIDExNC4wNDIgMTYuNjYxIDExNC4wNDIgMzcuMjE4IDAgMjAuNTUyLTUxLjA1OCAzNy4yMTMtMTE0LjA0MiAzNy4yMTNzLTExNC4wNDYtMTYuNjYxLTExNC4wNDYtMzcuMjEzYy0uMDAxLTIwLjU1NyA1MS4wNjEtMzcuMjE4IDExNC4wNDYtMzcuMjE4eiIgZmlsbD0iIzhEOEQ4RCIgY2xhc3M9ImZpbGwtOGQ4ZDhkIi8+PHBhdGggZD0iTTI1NS4xMDEgMzA5LjcyYzYzLjAyNCAwIDExNC4wNDIgMTYuODA4IDExNC4wNDIgMzcuMjE4IDAgMjAuNzA3LTUxLjAxOCAzNy4yMTMtMTE0LjA0MiAzNy4yMTNoLTguMTA1di03NC4xM2MyLjcwMy0uMzAxIDUuNDAxLS4zMDEgOC4xMDUtLjMwMXoiIGZpbGw9IiM3RjdGN0YiIGNsYXNzPSJmaWxsLTdmN2Y3ZiIvPjxwYXRoIGZpbGw9IiNDQ0NDQ0MiIGQ9Ik0yMTMuNjgyIDIzOC41OTRoODIuODMzdjk5LjAzOGgtODIuODMzeiIgY2xhc3M9ImZpbGwtY2NjY2NjIi8+PHBhdGggZmlsbD0iI0I4QjhCOCIgZD0iTTI5Ni41MTUgMjkxLjcxNnY0NS45MTZoLTQ5LjUxOXYtNDUuOTE2eiIgY2xhc3M9ImZpbGwtYjhiOGI4Ii8+PHBhdGggZmlsbD0iI0I4QjhCOCIgZD0iTTIxOS45ODMgMjQ0Ljg5Nmg3Mi4wM3Y4Ni40MzRoLTcyLjAzeiIgY2xhc3M9ImZpbGwtYjhiOGI4Ii8+PHBhdGggZmlsbD0iI0E2QTZBNiIgZD0iTTI5Mi4wMTMgMjkxLjcxNnYzOS42MTRoLTQ1LjAxN3YtMzkuNjE0eiIgY2xhc3M9ImZpbGwtYTZhNmE2Ii8+PHBhdGggZD0iTTQ4LjMxOCA2LjYwM2g0MTUuMzY0YzMuOSAwIDcuNTAzIDMuNjAzIDcuNTAzIDcuNTAydjI3MC4xMDRjMCA0LjIwNS0zLjYwMyA3LjUwNy03LjUwMyA3LjUwN0g0OC4zMThjLTMuODk5IDAtNy41MDItMy4zMDItNy41MDItNy41MDdWMTQuMTA0YzAtMy44OTkgMy42MDItNy41MDEgNy41MDItNy41MDF6IiBmaWxsPSIjQTlBQkFFIiBjbGFzcz0iZmlsbC1hOWFiYWUiLz48cGF0aCBkPSJNNjQuODI0IDE3LjcwN2gzODkuMjUxYzMuMzAyIDAgNi4wMDQgMi43MDEgNi4wMDQgNi4wMDJ2MjQ0Ljg5N2MwIDMuMzAyLTIuNzAyIDUuNjk5LTYuMDA0IDUuNjk5SDU3LjkyNWMtMy4zMDYgMC02LjAwNC0yLjM5Ny02LjAwNC01LjY5OVYzMC42MTFjLS4wMDEtNi45MDIgNS43MDMtMTIuOTA0IDEyLjkwMy0xMi45MDR6IiBmaWxsPSIjZTlkZGYwIiBjbGFzcz0iZmlsbC02Njk5OTkiLz48cGF0aCBkPSJNMjU2IDI3NS44MDhhNi4wMDUgNi4wMDUgMCAwIDEgNi4wMDQgNi4wMDRjMCAzLjMxMy0yLjY5IDYtNi4wMDQgNnMtNi0yLjY4Ny02LTZhNi4wMDEgNi4wMDEgMCAwIDEgNi02LjAwNHoiIGZpbGw9IiNDQ0NDQ0MiIGNsYXNzPSJmaWxsLWNjY2NjYyIvPjxjaXJjbGUgY3g9IjI1NiIgY3k9IjI4MS44MSIgZmlsbD0iI0IzQjNCMyIgcj0iNC4yMDMiIGNsYXNzPSJmaWxsLWIzYjNiMyIvPjxwYXRoIGQ9Ik03Ni41MjcgMjUuODFoMzY1LjU0NGE1LjM3OCA1LjM3OCAwIDAgMSA1LjQwMSA1LjQwMnYyMjkuODg5YTUuMzc0IDUuMzc0IDAgMCAxLTUuNDAxIDUuNDAxSDY5LjkyNWE1LjM3NiA1LjM3NiAwIDAgMS01LjM5Ny01LjQwMVYzNy44MTRjLS4wMDEtNi42MDMgNS4zOTctMTIuMDA0IDExLjk5OS0xMi4wMDR6IiBmaWxsPSIjYzI2OWExIiBjbGFzcz0iZmlsbC0zMzY2NjYiLz48cGF0aCBmaWxsPSIjRTZFNkU2IiBkPSJNMTAxLjEzOCA1NC4zMjJoMjQ0LjU5OFYyNTQuNUgxMDEuMTM4eiIgY2xhc3M9ImZpbGwtZTZlNmU2Ii8+PHBhdGggZmlsbD0iIzVjMDY4YyIgZD0iTTcwLjUyNyA1NC4zMjJIOTEuNDV2MjAwLjE0N0g3MC41Mjd6IiBjbGFzcz0iZmlsbC02NmZmY2MgZmlsbC01YzA2OGMiLz48cGF0aCBmaWxsPSIjRTZFNkU2IiBkPSJNMzUyLjkzOCA1NS44MjJoNTAuNzJ2MTk4LjM3NmgtNTAuNzJ6TTQxNS4wNjMgNTQuMzIyaDIwLjkyM3YyMDAuMTQ3aC0yMC45MjN6IiBjbGFzcz0iZmlsbC1lNmU2ZTYiLz48cGF0aCBmaWxsPSIjQ0NDQ0NDIiBkPSJNMzU2Ljg0MSA2MC4wMjNoNDMuODE2djU2LjEyNGgtNDMuODE2ek0zNTYuODQxIDEyMi43NDloNDMuODE2djMyLjQxMmgtNDMuODE2ek0zNTYuODQxIDE2My41NjVoNDMuNzQ3djIwLjQ3N2gtNDMuNzQ3ek0zNTYuODQxIDE5MC44NzVoNDMuODE2djU2LjcyMmgtNDMuODE2eiIgY2xhc3M9ImZpbGwtY2NjY2NjIi8+PHBhdGggZD0iTTQxNy40NjUgNjAuMDIzaDYuNjAzdjYuNjAzaC02LjYwM3YtNi42MDN6bTkuNjAyIDE4Mi4xNzFoNi42MDN2Ni45MDJoLTYuNjAzdi02LjkwMnptLTkuNjAyIDBoNi42MDN2Ni45MDJoLTYuNjAzdi02LjkwMnptOS42MDItOC43MDJoNi42MDN2Ni45MDJoLTYuNjAzdi02LjkwMnptLTkuNjAyIDBoNi42MDN2Ni45MDJoLTYuNjAzdi02LjkwMnptOS42MDItOC43MDNoNi42MDN2Ni45MDJoLTYuNjAzdi02LjkwMnptLTkuNjAyIDBoNi42MDN2Ni45MDJoLTYuNjAzdi02LjkwMnptOS42MDItOC43MDZoNi42MDN2Ni45MDRoLTYuNjAzdi02LjkwNHptLTkuNjAyIDBoNi42MDN2Ni45MDRoLTYuNjAzdi02LjkwNHptOS42MDItOC40MDFoNi42MDN2Ni42MDNoLTYuNjAzdi02LjYwM3ptLTkuNjAyIDBoNi42MDN2Ni42MDNoLTYuNjAzdi02LjYwM3ptOS42MDItOC43MDVoNi42MDN2Ni42MDNoLTYuNjAzdi02LjYwM3ptLTkuNjAyIDBoNi42MDN2Ni42MDNoLTYuNjAzdi02LjYwM3ptOS42MDItOC43MDNoNi42MDN2Ni42MDNoLTYuNjAzdi02LjYwM3ptLTkuNjAyIDBoNi42MDN2Ni42MDNoLTYuNjAzdi02LjYwM3ptOS42MDItOC43MDNoNi42MDN2Ni42MDNoLTYuNjAzdi02LjYwM3ptLTkuNjAyIDBoNi42MDN2Ni42MDNoLTYuNjAzdi02LjYwM3ptOS42MDItOC43MDNoNi42MDN2Ni42MDNoLTYuNjAzdi02LjYwM3ptLTkuNjAyIDBoNi42MDN2Ni42MDNoLTYuNjAzdi02LjYwM3ptOS42MDItOC43MDVoNi42MDN2Ni42MDNoLTYuNjAzdi02LjYwM3ptLTkuNjAyIDBoNi42MDN2Ni42MDNoLTYuNjAzdi02LjYwM3ptOS42MDItOC43MDNoNi42MDN2Ni42MDNoLTYuNjAzdi02LjYwM3ptLTkuNjAyIDBoNi42MDN2Ni42MDNoLTYuNjAzdi02LjYwM3ptOS42MDItOC43MDNoNi42MDN2Ni42MDNoLTYuNjAzdi02LjYwM3ptLTkuNjAyIDBoNi42MDN2Ni42MDNoLTYuNjAzdi02LjYwM3ptOS42MDItOC43MDNoNi42MDN2Ni42MDNoLTYuNjAzdi02LjYwM3ptLTkuNjAyIDBoNi42MDN2Ni42MDNoLTYuNjAzdi02LjYwM3ptOS42MDItOC43MDJoNi42MDN2Ni42MDNoLTYuNjAzdi02LjYwM3ptLTkuNjAyIDBoNi42MDN2Ni42MDNoLTYuNjAzdi02LjYwM3ptOS42MDItOC43MDZoNi42MDN2Ni42MDNoLTYuNjAzdi02LjYwM3ptLTkuNjAyIDBoNi42MDN2Ni42MDNoLTYuNjAzdi02LjYwM3ptOS42MDItOC43MDNoNi42MDN2Ni42MDNoLTYuNjAzdi02LjYwM3ptLTkuNjAyIDBoNi42MDN2Ni42MDNoLTYuNjAzdi02LjYwM3ptOS42MDItOC43MDJoNi42MDN2Ni45MDFoLTYuNjAzdi02LjkwMXptLTkuNjAyIDBoNi42MDN2Ni45MDFoLTYuNjAzdi02LjkwMXptOS42MDItOC43MDNoNi42MDN2Ni45MDJoLTYuNjAzdi02LjkwMnptLTkuNjAyIDBoNi42MDN2Ni45MDJoLTYuNjAzdi02LjkwMnptOS42MDItOC43MDVoNi42MDN2Ni45MDRoLTYuNjAzdi02LjkwNHptLTkuNjAyIDBoNi42MDN2Ni45MDRoLTYuNjAzdi02LjkwNHptOS42MDItOC43MDNoNi42MDN2Ni45MDNoLTYuNjAzVjc3LjEzem0tOS42MDIgMGg2LjYwM3Y2LjkwM2gtNi42MDNWNzcuMTN6bTkuNjAyLTguNzAzaDYuNjAzdjYuOTAyaC02LjYwM3YtNi45MDJ6bS05LjYwMiAwaDYuNjAzdjYuOTAyaC02LjYwM3YtNi45MDJ6bTkuNjAyLTguNDA0aDYuNjAzdjYuNjAzaC02LjYwM3YtNi42MDN6IiBmaWxsPSIjNWMwNjhjIiBjbGFzcz0iZmlsbC0zM2NjOTkgZmlsbC01YzA2OGMiLz48cGF0aCBmaWxsPSIjOTk5OTk5IiBkPSJNODIuMjM0IDMwLjMxMmgzNDcuNTg0djE2LjUyOUg4Mi4yMzR6IiBjbGFzcz0iZmlsbC05OTk5OTkiLz48Y2lyY2xlIGN4PSI5My42MzYiIGN5PSIzOC40MTQiIGZpbGw9IiNCM0IzQjMiIHI9IjQuNTAyIiBjbGFzcz0iZmlsbC1iM2IzYjMiLz48cGF0aCBkPSJNMTE1LjI0NyAzMy45MTJhNC41MDUgNC41MDUgMCAwIDEgNC41MDIgNC41MDIgNC41MDEgNC41MDEgMCAxIDEtNC41MDItNC41MDJ6TTEzNi41NTIgMzMuOTEyYTQuNTAyIDQuNTAyIDAgMSAxLS4wMDEgOS4wMDUgNC41MDIgNC41MDIgMCAwIDEgLjAwMS05LjAwNXpNMTU4LjE1OSAzMy45MTJhNC41IDQuNSAwIDAgMSA0LjUwMiA0LjUwMiA0LjUgNC41IDAgMSAxLTkgMCA0LjUwMiA0LjUwMiAwIDAgMSA0LjQ5OC00LjUwMnpNMTc5LjQ3MyAzMy45MTJhNC41MDUgNC41MDUgMCAwIDEgNC41MDIgNC41MDIgNC41MDQgNC41MDQgMCAwIDEtNC41MDIgNC41MDIgNC40OTkgNC40OTkgMCAwIDEtNC41MDItNC41MDIgNC41IDQuNSAwIDAgMSA0LjUwMi00LjUwMnoiIGZpbGw9IiNCM0IzQjMiIGNsYXNzPSJmaWxsLWIzYjNiMyIvPjxjaXJjbGUgY3g9IjIwMC43NzgiIGN5PSIzOC40MTQiIGZpbGw9IiNCM0IzQjMiIHI9IjQuNTAyIiBjbGFzcz0iZmlsbC1iM2IzYjMiLz48cGF0aCBkPSJNMjIyLjM4NSAzMy45MTJhNC41MDIgNC41MDIgMCAxIDEtLjAwMSA5LjAwNSA0LjUwMiA0LjUwMiAwIDAgMSAuMDAxLTkuMDA1eiIgZmlsbD0iI0IzQjNCMyIgY2xhc3M9ImZpbGwtYjNiM2IzIi8+PGNpcmNsZSBjeD0iMjQzLjY5NCIgY3k9IjM4LjQxNCIgZmlsbD0iI0IzQjNCMyIgcj0iNC41MDIiIGNsYXNzPSJmaWxsLWIzYjNiMyIvPjxjaXJjbGUgY3g9IjI2NS4wMDQiIGN5PSIzOC40MTQiIGZpbGw9IiNCM0IzQjMiIHI9IjQuNTAyIiBjbGFzcz0iZmlsbC1iM2IzYjMiLz48Y2lyY2xlIGN4PSIyODYuNjExIiBjeT0iMzguNDE0IiBmaWxsPSIjQjNCM0IzIiByPSI0LjUwMiIgY2xhc3M9ImZpbGwtYjNiM2IzIi8+PGNpcmNsZSBjeD0iMzA3LjkyMSIgY3k9IjM4LjQxNCIgZmlsbD0iI0IzQjNCMyIgcj0iNC41MDIiIGNsYXNzPSJmaWxsLWIzYjNiMyIvPjxwYXRoIGQ9Ik0zMjkuMjMgMzMuOTEyYTQuNTA2IDQuNTA2IDAgMCAxIDQuNTAyIDQuNTAyIDQuNTAyIDQuNTAyIDAgMSAxLTQuNTAyLTQuNTAyeiIgZmlsbD0iI0IzQjNCMyIgY2xhc3M9ImZpbGwtYjNiM2IzIi8+PGNpcmNsZSBjeD0iMzUwLjgzNyIgY3k9IjM4LjQxNCIgZmlsbD0iI0IzQjNCMyIgcj0iNC41MDIiIGNsYXNzPSJmaWxsLWIzYjNiMyIvPjxjaXJjbGUgY3g9IjM3Mi4xNDYiIGN5PSIzOC40MTQiIGZpbGw9IiNCM0IzQjMiIHI9IjQuNTAyIiBjbGFzcz0iZmlsbC1iM2IzYjMiLz48Y2lyY2xlIGN4PSIzOTMuNzUzIiBjeT0iMzguNDE0IiBmaWxsPSIjQjNCM0IzIiByPSI0LjUwMiIgY2xhc3M9ImZpbGwtYjNiM2IzIi8+PGNpcmNsZSBjeD0iNDE1LjA2MyIgY3k9IjM4LjQxNCIgZmlsbD0iI0IzQjNCMyIgcj0iNC41MDIiIGNsYXNzPSJmaWxsLWIzYjNiMyIvPjxwYXRoIGZpbGw9IiM1YzA2OGMiIGQ9Im0yMjMuNTkgOTUuNzM2IDI1LjUwNiAxNC43MDcgMjUuMjEgMTQuNzA1djU4LjgyM2wtMjUuMjEgMTQuNzA3LTI1LjUwNiAxNC43MDUtMjUuMjE0LTE0LjcwNS0yNS41MDYtMTQuNzA3di01OC44MjNsMjUuNTA2LTE0LjcwNXoiIGNsYXNzPSJmaWxsLTMzY2M5OSBmaWxsLTVjMDY4YyIvPjxwYXRoIGZpbGw9IiM1YzA2OGMiIGQ9Im0yMjMuNTkgOTUuNzM2IDI1LjUwNiAxNC43MDcgMjUuMjEgMTQuNzA1djI2LjQxMUgxNzIuODd2LTI2LjQxMWwyNS41MDYtMTQuNzA1eiIgY2xhc3M9ImZpbGwtMmViODhhIGZpbGwtNWMwNjhjIi8+PHBhdGggZmlsbD0iI0NDMzMwMCIgZD0iTTE2OC4zNjggMTgwLjM3aDYuNzc3djYuODE2aC02Ljc3N3oiIGNsYXNzPSJmaWxsLWNjMzMwMCIvPjxwYXRoIGZpbGw9IiNDQzMzMDAiIGQ9Ik0xNzEuNjY2IDE4Mi4xNzFoMTAwLjI0MnYzLjMwMkgxNzEuNjY2eiIgY2xhc3M9ImZpbGwtY2MzMzAwIi8+PHBhdGggZmlsbD0iI0NDMzMwMCIgZD0iTTI3MC40MDYgMTgwLjM3aDYuNzgxdjYuODE2aC02Ljc4MXoiIGNsYXNzPSJmaWxsLWNjMzMwMCIvPjxwYXRoIGZpbGw9IiNDQ0NDQ0MiIGQ9Im0xNzMuMTY3IDE4MS4yNyA2LjkwNCA2LjAwNC0zLjMwMSAxNi44MDZoLTEwLjIwNWwtMy4zMDEtMTYuODA2IDYuOTAzLTYuMDA0djE0LjcwN2gzeiIgY2xhc3M9ImZpbGwtY2NjY2NjIi8+PHBhdGggZD0iTTE2Ni4yNjggMjA0LjA4aDEwLjkyNmMxLjE2IDAgMi4xIDEuODc4IDIuMSA0LjE5NyAwIDIuMzE4LS45NCA0LjE5Ny0yLjEgNC4xOTdoLTEwLjkyNmMtMS4xNjQgMC0yLjEwNC0xLjg3OC0yLjEwNC00LjE5Ny0uMDAxLTIuMzE5Ljk0LTQuMTk3IDIuMTA0LTQuMTk3eiIgZmlsbD0iI0IzQjNCMyIgY2xhc3M9ImZpbGwtYjNiM2IzIi8+PHBhdGggZmlsbD0iIzRENEQ0RCIgZD0iTTE3MC4xNjcgMTgwLjM3aDIuOTQ3djE1LjcwM2gtMi45NDd6IiBjbGFzcz0iZmlsbC00ZDRkNGQiLz48Y2lyY2xlIGN4PSIxNzEuNjY2IiBjeT0iMTk1Ljk3NiIgZmlsbD0iIzRENEQ0RCIgcj0iMy4wMDEiIGNsYXNzPSJmaWxsLTRkNGQ0ZCIvPjxwYXRoIGQ9Ik0yMjMuMjg5IDY5LjMyNmgtMS41MDJjLS44OTkuMzAxLTEuODAzLS42LTEuODAzLTEuNSAwLS44OTkuOTA0LTEuNSAxLjgwMy0xLjVoNC41MDJjLjkgMCAxLjgwMy45IDEuODAzIDEuNzk5LS4zMDEuNjAxLS45MDMgMS41MDItMS44MDMgMS41MDJoLS44OTlsLS42MDMtLjMwMWgtMS40OTh6bS0xMS4xMDUtMi4zOTljLjg5OSAwIDEuNDk4LjYwMSAxLjc5OSAxLjUgMCAuODk5LS42MDMgMS41LTEuNDk4IDEuODAxaC0xLjUwM2wtLjU5OS4yOTlIMjA5LjQ3OWMtLjg5OS4zMDEtMS43OTktLjI5OS0xLjc5OS0xLjIwMS0uMzAxLS44OTkuMzAxLTEuNzk5IDEuMTk3LTEuNzk5aC4zMDFsLjYwMi0uMzAxSDIxMS41OGwuNjA0LS4yOTl6bS0xMi42MDYgMi43Yy44OTktLjMwMSAxLjgwMy4yOTkgMS44MDMuOS4yOTcuODk5IDAgMS44MDEtLjkwNCAyLjFoLS4zMDFsLS41OTguMzAxaC0uNTk5bC0uMzAxLjI5OWgtLjYwM2wtLjU5OC4zMDFjLS45LjI5OS0xLjgwMy0uMzAxLTIuMTAxLTEuMjAxLS4zMDEtLjYwMS4yOTctMS41IDEuMjAxLTEuODAxbC42MDMtLjI5OWguNTk5bC4yOTctLjMwMWguNjAzbC42MDMtLjI5OWguMjk2em0tMTIuMDA1IDQuMjAyYy42MDMtLjI5OSAxLjc5OSAwIDIuMTAxLjkwMS4zMDEuOSAwIDEuNzk5LS45IDIuMTAxaC0uMzAxbC0uNTk4LjI5OS0uMzAxLjMwMS0uNjAzLjI5OWgtLjI5N2wtLjU5OS4zMDFjLS45MDQuNjAxLTEuODAzIDAtMi4xMDEtLjYtLjMwMS0uOTAyIDAtMS44MDEuNTk1LTIuMTAzbC42MDItLjI5OS42MDMtLjI5OS4zMDEtLjMwMWguNTk5bC4yOTctLjI5OS42MDItLjMwMXptLTExLjQwNiA2LjMwM2MuOTA0LS42MDEgMS43OTktLjMwMSAyLjQwMS4yOTkuMzAxLjkwMSAwIDEuODAxLS42MDIgMi4xbC0uMjk3LjMwMS0uNTk4LjI5OS0uMzAxLjMwMS0uMzAxLjI5OS0uNjAzLjMwMS0uMjk3LjI5OWgtLjMwMWMtLjU5OC42MDEtMS41MDIuMzAxLTIuMS0uMjk5LS41OTktLjkwMS0uMjk3LTEuODAxLjMwMS0yLjQwMWguMjk3bC4zMDEtLjI5OS42MDMtLjMwMS4zMDEtLjI5OS41OTgtLjMwMS4yOTctLjI5OWguMzAxem0tMTAuMjAxIDcuNTAyYy41OTktLjYgMS43OTktLjYgMi4xMDEuMzAxLjU5OC42MDEuNTk4IDEuNSAwIDIuMTAxbC0uMzAxLjI5OS0uMzAxLjMwMS0uMzAxLjI5OS0uNTk4LjMwMS0uMjk3LjI5OS0uMzAxLjMwMS0uMzAxLjI5OWMtLjYwMi42MDEtMS41MDIuNjAxLTIuMSAwLS42MDMtLjg5OS0uNjAzLTEuODAxIDAtMi40MDFoLjMwMWwuMjk3LS42MDEuMzAxLS4yOTkuNTk5LS4yOTkuMzAxLS4zMDEuMzAxLS4yOTkuMjk5LS4zMDF6bS05LjAwNCA5LjAwNGMuNTk4LS42MDEgMS40OTgtLjYwMSAyLjEgMCAuNjAzLjYuOSAxLjUuMzAxIDIuMWwtLjYwMi42MDEtLjMwMS4yOTktLjMwMS4zMDEtLjI5Ny42LS4zMDEuMjk5LS4yOTcuMzAxYy0uNjAzLjYwMS0xLjUwMi44OTktMi4xMDEuMjk5LS42MDMtLjYwMS0uOTA0LTEuNS0uMzAxLTIuNDAybC4zMDEtLjI5OS4yOTctLjI5OS4zMDEtLjMwMS4yOTctLjYwMS42MDMtLjI5OS4zMDEtLjMwMXYtLjI5OHptLTcuODAzIDEwLjUwNGMuNTk4LS45MDEgMS41MDItMS4yMDEgMi4zOTctLjYuNjAzLjI5OS45MDQgMS41LjMwMSAyLjFsLS4zMDEuNjAxLS4yOTcuMjk5di42bC0uMzAxLjMwMS0uMjk3LjI5OS0uMzAxLjYwMWMtLjYwMy42LTEuNTAyLjkwMS0yLjEwMS42LS45MDQtLjYtMS4yMDUtMS41LS42MDMtMi4xbC4zMDEtLjYwMS4zMDEtLjMwMS4zMDEtLjU5OC4yOTctLjYwMXYtLjMwMWwuMzAzLS4yOTl6bS02LjAwNCAxMS4xMDVjLjMwMS0uOTAyIDEuMjAxLTEuMjAxIDIuMTAxLS45MDIuOTA0LjYwMSAxLjIwNSAxLjUwMi45MDQgMi4xMDNsLS4zMDEuNTk4LS4zMDEuMzAxdi42MDFsLS4zMDEuNi0uMzAxLjI5OXYuNjAxYy0uMjk3Ljg5OS0xLjQ5OCAxLjIwMS0yLjEwMS44OTktLjg5Ni0uMjk5LTEuMTk3LTEuMTk5LS44OTYtMi4xbC4yOTctLjYwMXYtLjI5OWwuMzAxLS42LjI5Ny0uNjAxdi0uMjk5bC4zMDEtLjZ6bS00LjUwMiAxMi4wMDRjLjMwMS0uNjAxIDEuMjAxLTEuMjAxIDIuMTAxLS44OTkuOTAzLjI5OSAxLjIwNS44OTkgMS4yMDUgMS43OTloLS4zMDF2MS4yMDJsLS4zMDEuMzAxdi41OThsLS4zMDEuNjAxdi4zMDFjLS4zMDEuODk5LTEuMjAxIDEuNS0xLjc5OSAxLjIwMS0uOTA0LS4zMDEtMS41MDItLjkwMS0xLjIwMS0xLjgwMXYtLjYwMWwuMjk3LS4yOTl2LTEuMjAybC4zMDEtLjZ2LS42MDFoLS4wMDF6bS0yLjQwMiAxMi42MDRjMC0uODk5LjkwNC0xLjUgMS44MDMtMS4yMDEuOSAwIDEuNTAyLjkwMiAxLjIwMSAxLjgwMXYxLjJsLS4zMDEuNjAxVjE0Ni40NTVjMCAuOTAyLS45IDEuNTAyLTEuNzk5IDEuNTAyLS42MDMtLjMwMS0xLjUwMi0uOTAxLTEuMjAxLTEuODAxdi0yLjQwMmwuMjk3LS4yOTl2LS42em0tLjg5NiAxMi45MDdjMC0uOTAyLjg5Ni0xLjUwMiAxLjQ5OC0xLjUwMi44OTkgMCAxLjc5OS42MDEgMS43OTkgMS41MDJ2My4wMDFjMCAuOTAxLS41OTkgMS44MDEtMS40OTggMS44MDEtLjkwNCAwLTEuNTAyLS42MDEtMS41MDItMS41di0xLjIwMWwtLjI5Ny0uNnYtMS41MDF6bTEuMTk3IDEyLjkwM2MwLS44OTkuMzAxLTEuNzk5IDEuMjAxLTEuNzk5LjktLjMwMSAxLjgwNC4yOTkgMS44MDQgMS4xOTlsLjI5Ny42VjE2OS41NjdsLjMwMS42MDF2Ljg5OWMuMjk3Ljg5OS0uMzAxIDEuODAxLTEuMjAxIDEuODAxLS45LjI5OS0xLjc5OS0uMzAxLTEuNzk5LTEuMjAxdi0uMzAxbC0uMzAxLS42MDFWMTY5LjU2NmwtLjMwMS0uNjAxdi0uM3ptMy4wMDUgMTIuMzA2Yy0uMzAxLS42MDEgMC0xLjUuODk2LTEuODAxLjkwMy0uMjk5IDEuODAzIDAgMi4xMDQuOTAydi4yOTlsLjI5Ny42MDF2LjI5OWwuMzAxLjZ2LjYwMWwuMzAxLjMwMXYuMjk5Yy4zMDEuODk5IDAgMS44MDEtLjg5OSAyLjEtLjkuMzAxLTEuODAzLS4yOTktMi4xMDQtLjg5OXYtLjMwMWwtLjI5Ny0uNTk4di0uNjAxbC0uMzAxLS4zMDF2LS42MDFsLS4yOTctLjZ2LS4zem00LjUwMiAxMi4wMDRjLS4zMDEtLjYwMSAwLTEuNzk5Ljg5Ni0yLjEwMS42MDMtLjI5OSAxLjgwMyAwIDIuMTAxLjg5OWwuMzAxLjYwMS4zMDEuNjAxLjMwMS4zMDF2LjZsLjMwMS4yOTkuMzAxLjMwMWMuMjk3LjU5OCAwIDEuNS0uOTA0IDIuMS0uNjAyLjI5OS0xLjQ5OCAwLTIuMS0uNnYtLjMwMWwtLjMwMS0uNjAxLS4zMDEtLjI5OXYtLjYwMWwtLjI5Ny0uMjk5LS4zMDEtLjYtLjI5OC0uM3ptNi42MDIgMTEuMTA1Yy0uNjAzLS42MDEtLjMwMS0xLjUuMjk3LTIuMTAxLjktLjYgMS44MDMtLjMwMSAyLjEwNC4yOTlsLjI5Ny4zMDEuMzAxLjI5OS4yOTcuNi4zMDEuMzAxLjMwMS42MDEuMzAxLjI5OXYuMjk5Yy41OTkuNjAxLjU5OSAxLjUwMi0uMzAxIDIuMTAzLS42MDMuNjAxLTEuNDk4LjI5OS0yLjEtLjMwMWwtLjMwMS0uMjk5LS4zMDEtLjMwMS0uMzAxLS42LS4yOTctLjI5OS0uMzAxLS42MDEtLjI5Ny0uMjk5di0uMzAxem03Ljc5OSAxMC4yMDVjLS41OTktLjYwMS0uNTk5LTEuODAxLjMwMS0yLjQwMi42MDItLjYwMSAxLjUwMi0uNjAxIDIuMS4yOTlsLjMwMS4zMDEuNjAzLjI5OS4yOTcuNjAxLjMwMS4zMDEuMjk3LjI5OS4zMDEuMzAxYy42MDMuNTk4LjYwMyAxLjUgMCAyLjM5OS0uNTk5LjYwMS0xLjQ5OC42MDEtMi4xMDEtLjI5OWwtLjMwMS0uMzAxLS41OTgtLjI5OS0uMjk3LS4zMDEtLjMwMS0uMjk5LS4zMDEtLjYwMS0uMzAxLS4yOTloLS4zMDF6bTkuMzA2IDguNzAyYy0uNjAzLS42LS42MDMtMS41MDItLjMwMS0yLjEuNjAzLS45MDIgMS43OTktLjkwMiAyLjQwMi0uMzAxbC4zMDEuMzAxLjMwMS4yOTkuNTk4LjI5OS4yOTcuMzAxLjMwMS4yOTkuNjAyLjMwMWMuNjAzLjYuOSAxLjUuMzAxIDIuNDAxLS42MDMuNTk5LTEuNTAyLjU5OS0yLjEuMjk5aC0uMzAxbC0uMzAxLS42MDEtLjMwMS0uMjk5LS41OTktLjMwMS0uMzAxLS4yOTktLjI5Ny0uMzAxLS42MDItLjI5OHptMTAuNTAyIDcuNTAzYy0uNTk5LS42MDEtLjktMS41LS41OTktMi40LjU5OS0uNiAxLjUwMi0uOTAxIDIuMTAxLS4zMDFoLjU5OGwuMzAxLjMwMS4zMDEuMjk5LjYwMy4zMDEuMjk3LjI5OWguNTk5di4yOTljLjkwNC4zMDEgMS4yMDUgMS4yMDEuNjAzIDIuMTAzLS4zMDEuNjAxLTEuMjAxLjktMi4xMDEuNjAxbC0uNjAzLS4zMDEtLjI5Ny0uMjk5LS41OTktLjMwMS0uMzAxLS4yOTktLjYwMy0uMzAxaC0uM3ptMTEuNDA2IDUuNzAyYy0uNjAzLS4zMDEtMS4yMDEtMS4yMDEtLjktMi4xMDEuMjk3LS45MDEgMS4yMDEtMS4yMDEgMi4xMDEtLjkwMWwuMzAxLjMwMWguNTk4bC4zMDEuMjk5aC42MDNsLjU5OS4zMDEuMjk3LjI5OWguMzAxYy42MDMuMzAxIDEuMjAxIDEuMjAxLjkwNCAyLjEwMS0uMzAxLjYwMS0xLjIwNSAxLjIwMS0yLjEwMS45MDFsLS42MDMtLjMwMS0uNjAzLS4yOTloLS4yOTdsLS41OTktLjMwMS0uNjAyLS4yOTloLS4zem0xMi4zMDUgMy45MDJjLS44OTkgMC0xLjUwMi0uOTAyLTEuMjAxLTEuODAxIDAtLjkuODk5LTEuNSAxLjc5OS0xLjIwMWguNjAybC4zMDEuMzAxaC41OTlsLjU5OC4yOTlIMjA1LjU4MWMuODk5LjMwMSAxLjQ5OCAxLjIwMSAxLjE5NyAyLjEwMSAwIC42MDEtLjg5NiAxLjIwMS0xLjc5OSAxLjIwMWwtLjU5OC0uMjk5SDIwMy40ODFsLS42MDItLjMwMWgtLjYwM2wtLjI5Ny0uM3ptMTIuNjA3IDIuNGMtLjkwNC0uMjk5LTEuNTAyLS44OTktMS41MDItMS43OTkgMC0uOTAxLjktMS41MDIgMS43OTktMS41MDJoLjg5OWwuMzAxLjMwMUgyMTcuODgzYy45MDQgMCAxLjUwMi45IDEuNTAyIDEuODAxIDAgLjYwMS0uODk5IDEuNS0xLjc5OSAxLjE5OWgtM3ptMTIuNjAyLjMwMWMtLjkgMC0xLjQ5OC0uNjAxLTEuNDk4LTEuNSAwLS45MDEuNTk4LTEuODAxIDEuNDk4LTEuODAxSDIzMC4xOTJjLjg5Ni0uMzAxIDEuNDk4LjYwMSAxLjc5OSAxLjIwMSAwIC45LS42MDMgMS43OTktMS41MDIgMS43OTloLTEuNTAzbC0uNTk4LjMwMWgtMS4yem0xMi42MDMtMS41Yy0uNTk5IDAtMS40OTgtLjYwMS0xLjc5OS0xLjIwMSAwLS45MDIuNjAzLTEuODAxIDEuMjAxLTIuMTAxaDEuMjAybC4zMDEtLjMwMWgxLjIwMmwuNTk4LS4yOTljLjYwMyAwIDEuNTAyLjI5OSAxLjc5OSAxLjIwMSAwIC44OTktLjI5NyAxLjc5OS0xLjE5NyAyLjFoLTEuMjAxbC0uMzAxLjI5OWgtMS4yMDFsLS42MDQuMzAyem0xMi42MDYtMy4zMDFjLS44OTkuMjk5LTEuNzk5LS4zMDEtMi4xMDEtMS4yMDEtLjI5Ny0uNjAxIDAtMS41LjktMS44MDFoLjMwMWwuMzAxLS4yOTkuNTk4LS4zMDFoLjMwMWwuNTk4LS4yOTkuNjAzLS4zMDFoLjMwMWMuNTk5LS4yOTkgMS40OTggMCAyLjEwMS45MDEuMjk3LjktLjMwMSAxLjc5OS0uOTA0IDIuMTAxaC0uNTk4bC0uMjk3LjI5OS0uNjAzLjMwMWgtLjYwM2wtLjMwMS4yOTloLS41OTl2LjMwMXptMTEuNzA3LTUuMTAzYy0uOTAzLjI5OS0xLjgwMyAwLTIuMTAxLS44OTktLjYwMy0uNjAxLS4zMDEtMS41MDIuNTk5LTIuMTAzbC41OTktLjI5OS4zMDEtLjMwMS42MDMtLjI5OWguMjk3bC42MDMtLjI5OS4zMDItLjMwMWMuNTk4LS4yOTkgMS40OTggMCAyLjEwMS42MDEuMjk3Ljg5OSAwIDEuODAxLS42MDMgMi4xbC0uMzAyLjMwMS0uNTk5LjI5OS0uMzAxLjMwMS0uNTk5LjI5OWgtLjMwMWwtLjU5OS4yOTl2LjMwMXptMTAuODA0LTYuOTA0Yy0uODk5LjYwMS0xLjgwNC4zMDEtMi40MDItLjI5OS0uMzAxLS45LS4zMDEtMS44MDEuNTk5LTIuNDAybC4zMDItLjI5OS42MDMtLjMwMS4yOTctLjI5OS4zMDEtLjMwMS42MDMtLjI5OS4yOTctLjMwMWMuNjAzLS41OTggMS41MDMtLjI5OSAyLjEwMS4zMDEuNjAzLjYwMS42MDMgMS44MDEtLjI5NyAyLjEwMWwtLjMwMS4zMDEtLjMwMi4yOTktLjU5OS42MDEtLjMwMS4yOTktLjU5OS4zMDEtLjMwMi4yOTh6bTkuNjAzLTguNDAxYy0uNTk5LjU5OC0xLjQ5OC41OTgtMi4xMDEgMC0uNTk5LS42MDEtLjU5OS0xLjUwMiAwLTIuMTAzbC4zMDEtLjI5OS4zMDItLjYwMS4yOTctLjI5OS42MDMtLjMwMS4yOTctLjI5OS4zMDItLjMwMXYtLjI5OWMuNjAzLS42IDEuNTAyLS42IDIuNDAxIDAgLjU5OS42MDEuNTk5IDEuNzk5IDAgMi40bC0uNjAzLjMwMS0uMjk3LjI5OS0uMzAyLjYwMS0uMzAxLjMwMS0uNTk5LjI5OS0uMy4zMDF6bTguNzAzLTkuNjA1Yy0uNTk5LjktMS40OTguOS0yLjQwMi4yOTktLjU5OS0uNTk4LS44OTktMS41LS4yOTctMi4xMDFsLjI5Ny0uMjk5LjMwMi0uMzAxLjMwMS0uNjAxLjMwMi0uMjk5LjI5Ny0uMjk5LjMwMS0uNjAxYy42MDMtLjkwMSAxLjUwMi0uOTAxIDIuNDAyLS42MDEuNTk4LjYwMS41OTggMS41LjMwMSAyLjRoLS4zMDFsLS4zMDIuNi0uMzAxLjMwMS0uMjk4LjYwMS0uMzAxLjI5OS0uMzAxLjMwMXYuMzAxem02LjkwMy0xMC44MDNjLS41OTkuOS0xLjUwMiAxLjE5OS0yLjEwMS42MDEtLjg5OS0uMzAxLTEuMjAxLTEuMjAxLS42MDMtMi4xMDNsLjMwMi0uNjAxLjMwMS0uMjk5di0uNjAxbC4zMDItLjI5OS4yOTctLjZ2LS4zMDFjLjYwMy0uNjAxIDEuNTAyLS45IDIuNDAxLS42MDEuNjAzLjMwMS44OTkgMS4yMDEuNjAzIDIuMTAzbC0uMzAxLjI5OXYuMjk5bC0uMzAyLjYwMS0uMzAxLjYwMS0uMjk4LjMwMS0uMy42em01LjQwMi0xMS40MDZjLS4zMDEuNjAxLTEuMiAxLjIwMS0yLjEwMS45MDItLjg5OS0uMzAxLTEuMi0xLjIwMS0uODk5LTIuMTAzdi0uMjk5bC4zMDItLjYwMXYtLjI5OWwuMjk3LS42MDF2LS4zMDFsLjMwMS0uNjAxdi0uMjk5Yy4zMDItLjkwMiAxLjIwMS0xLjIwMSAyLjEwMS0uOTAyLjg5OS4zMDEgMS4yMDEgMS4yMDEuODk5IDEuODAxdi4zMDFsLS4yOTcuNjAxdi41OThsLS4zMDEuMzAxdi42MDFsLS4zMDIuNnYuMzAxem0zLjYwMi0xMi42MDVjLS4zMDEuODk5LTEuMiAxLjUtMS44MDMgMS4yMDEtLjkgMC0xLjQ5OC0uODk5LTEuNDk4LTEuODAxbC4zMDEtLjI5OXYtMS4yMDFsLjI5Ny0uMzAxVjE2OS41NjdjLjMwMi0uOTAyIDEuMjAxLTEuNTAyIDIuMTAxLTEuMjAxLjYwMyAwIDEuMjAxLjg5OSAxLjIwMSAxLjgwMWwtLjI5Ny41OThWMTcxLjY2N2wtLjMwMi42VjE3My4xNjd6bTEuOC0xMi42MDRjLS4zMDIuODk5LS45IDEuNS0xLjggMS41cy0xLjUwMi0uOS0xLjUwMi0xLjc5OVYxNTkuMzYybC4zMDItLjI5OVYxNTcuMjYyYzAtLjkuNTk4LTEuNSAxLjUwMi0xLjUuODk5IDAgMS40OTguNiAxLjQ5OCAxLjV2My4zMDF6bS0uMzAyLTEyLjkwNmMuMzAyLjkwMi0uMjk3IDEuODAxLTEuMTk2IDEuODAxLS45MDQgMC0xLjgwNC0uNi0xLjgwNC0xLjV2LTEuNTAybC0uMzAxLS41OThWMTQ0Ljk1NmMwLS44OTkuNjAzLTEuODAxIDEuNTAyLTEuODAxczEuNTAyLjYwMSAxLjUwMiAxLjUwMmwuMjk3LjI5OXYyLjcwMXptLTEuNzk5LTEyLjYwNWMuMzAxLjkwMi0uMzAyIDEuODAxLTEuMjAxIDEuODAxLS44OTkuMjk5LTEuNDk4LS4zMDEtMS43OTktMS4yMDF2LS4yOTlsLS4zMDItLjYwMXYtLjMwMWwtLjMwMS0uNjAxVjEzMi42NTFjLS4yOTctLjkwMiAwLTEuNTAyLjkwMy0xLjgwMS44OTktLjMwMSAxLjguMjk5IDIuMTAxLjg5OVYxMzIuNjUxbC4yOTcuMjk5djEuMjAybC4zMDIuNnYuM3ptLTMuNjAyLTEyLjMwM2MuMzAxLjg5OS0uMjk3IDEuNzk5LS44OTkgMi4xLS45LjI5OS0xLjgtLjMwMS0yLjEwMS0uOTAxbC0uMzAyLS42MDF2LS41OThsLS4yOTctLjMwMS0uMzAxLS42MDF2LS4yOTlsLS4zMDItLjZjLS4zMDEtLjYwMSAwLTEuODAxLjg5OS0yLjEwMS42MDMtLjMwMSAxLjgwNCAwIDIuMTAxLjl2LjZsLjMwMi4yOTkuMzAxLjYwMXYuMzAxbC4zMDIuNjAxLjI5Ny42em0tNS40MDItMTEuNzA1Yy4zMDEuODk5IDAgMS43OTktLjU5OSAyLjEwMS0uODk5LjYtMS44MDQuMjk5LTIuNDAyLS42MDF2LS4yOTlsLS4zMDEtLjYtLjI5Ny0uMzAxLS4zMDItLjYwMS0uMzAxLS4yOTktLjMwMi0uMzAxYy0uMjk3LS44OTktLjI5Ny0xLjc5OS42MDMtMi4zOTkuNTk5LS4zMDEgMS44IDAgMi4xMDEuNjAxbC4zMDIuNTk4LjI5Ny4zMDEuMzAxLjYwMS4zMDIuMjk5LjMwMS42MDF2LjMwMWguMjk3em0tNy4yMDEtMTAuNTA0Yy41OTkuNjAxLjMwMSAxLjUtLjMwMiAyLjEwMS0uNTk4LjYwMS0xLjc5OS4yOTktMi4xMDEtLjMwMWwtLjMwMS0uMjk5LS4yOTctLjI5OS0uMzAyLS42MDEtLjMwMS0uMzAxLS41OTktLjI5OS0uMzAxLS42Yy0uNjAzLS42MDEtLjMwMi0xLjUuMzAxLTIuMTAxLjU5OS0uNjAxIDEuNDk4LS42MDEgMi4xMDEgMHYuMjk5bC41OTkuMzAxLjMwMS4yOTkuMzAyLjYwMS4yOTcuMjk5LjMwMS4zMDEuMzAyLjZ6bS04LjcwMy05LjYwNWMuNTk5LjYwMS44OTkgMS41LjI5NyAyLjEwMS0uNTk4LjYwMS0xLjc5OS42MDEtMi4zOTcgMGgtLjMwMWwtLjMwMi0uMjk5LS4zMDEtLjYwMS0uMjk3LS4yOTktLjYwMy0uMzAxLS4zMDItLjI5OXYtLjMwMWMtLjg5OS0uNi0uODk5LTEuNS0uMjk3LTIuMS41OTktLjYwMSAxLjQ5OC0uNjAxIDIuNDAxIDBsLjU5OS4yOTkuMzAxLjYwMS4zMDIuMzAxLjI5Ny4yOTkuNjAzLjMwMXYuMjk4em0tOS42MDYtOC40MDRjLjYwMy42MDEuOTAzIDEuNTAyLjMwMSAyLjQwMi0uNTk4LjYwMS0xLjUwMi44OTktMi4xMDEuMzAxaC0uMzAxbC0uMjk3LS4zMDEtLjYwMy0uMjk5LS4zMDItLjMwMS0uMjk3LS4yOTktLjYwMy0uMzAxLS4zMDEtLjI5OWMtLjU5OS0uMzAxLS44OTktMS41LS4yOTgtMi4xMDEuMjk4LS42IDEuMjAxLS45MDEgMi4xMDEtLjZsLjMwMi4yOTkuMjk3LjMwMS42MDMuMjk5LjI5Ny4zMDEuNjAzLjI5OS4zMDIuMjk5aC4yOTd6bS0xMS4xMDUtNi42MDJjLjkwMy42MDEgMS4yIDEuNTAyLjkwMyAyLjEwMy0uNjAzLjktMS41MDIgMS4xOTktMi40MDEuOXYtLjI5OWgtLjMwMmwtLjU5OC0uMzAxLS4zMDItLjI5OS0uNjAzLS4zMDFoLS4yOTdsLS42MDEtLjMwMWMtLjU5OS0uMzAxLTEuMjAxLTEuMjAxLS41OTktMi4xMDMuMzAyLS45IDEuMjAxLTEuMTk5IDIuMTAxLS41OTloLjMwMmwuNTk4LjI5OS4zMDIuMjk5aC41OTlsLjMwMS4zMDEuNTk3LjMwMXptLTExLjcwMy00LjgwMmMuODk5IDAgMS4yMDEuOS44OTkgMS44MDEtLjI5Ny45LTEuMjAxIDEuMjAxLTEuNzk5LjlIMjUwbC0uNjAzLS4yOTloLS42MDNsLS4yOTctLjMwMWgtLjU5OWwtLjMwMS0uMjk5Yy0uOTAzLS4zMDEtMS4yMDUtLjkwMS0xLjIwNS0xLjgwMS4zMDEtLjg5OSAxLjIwNS0xLjUgMi4xMDQtMS4yMDFsLjI5Ny4zMDFoLjYwM2wuNjA0LjI5OWguMjk3bC41OTkuMzAxaC42MDN2LjI5OXptLTEyLjMwNi0zLjMwMWMuOSAwIDEuNTAyLjkgMS4yMDEgMS44MDEgMCAuOS0uOSAxLjUtMS43OTkgMS4yMDFIMjM3LjY5bC0uNTk4LS4zMDFIMjM2LjE5MmwtLjYwMy0uMjk5Yy0uODk2IDAtMS40OTgtLjkwMi0xLjQ5OC0xLjgwMS4zMDEtLjYwMS45LTEuMjAxIDEuNzk5LTEuMjAxaC42MDJsLjU5OS4zMDFoMS4yMDFsLjYwMy4yOTloLjI5N3oiIGZpbGw9IiNDQ0NDQ0MiIGNsYXNzPSJmaWxsLWNjY2NjYyIvPjxwYXRoIGQ9Ik00NjMuNjgyIDBINDguMzE4Yy03Ljc5OSAwLTE0LjEwNCA2LjMwMy0xNC4xMDQgMTQuMTA0djI3MC4xMDRjMCA4LjEwNCA2LjMwNSAxNC40MDYgMTQuMTA0IDE0LjQwNkgyMDcuMDh2Ny44MDNjLTI0LjAwOCAzLjYwMy03Mi42MjcgMTQuNDA2LTcyLjYyNyA0MC41MnY4LjEwMmMwIDE3LjEwOCAyMS42MDYgMjcuMDEyIDM1LjExMyAzMS44MTIgMjMuNzExIDguMTA0IDUyLjIyMiAxMS40MDUgNzcuMTMgMTIuMDA0aDguNDA2YzI2LjcxMSAwIDU3LjAyMS0yLjY5OCA4Mi44MzItMTEuMTAxIDE0LjEwNS00LjgwMyAzOC4xMTMtMTQuNzA3IDM4LjExMy0zMi43MTUgMC0uOS0uMzAxLTEuNDk4LS4zMDEtMi4xMDEgMC0uNTk5LjMwMS0xLjIwMS4zMDEtMS44IDAtLjYwMy0uMzAxLTEuNTAyLS4zMDEtMi4xIDAtLjYwMy4zMDEtMS41MDMuMzAxLTIuMTAxIDAtMjYuMTEzLTQ4LjkxNi0zNi45MTctNzIuOTI5LTQwLjUydi03LjgwM2gxNjAuNTY0YzcuODA0IDAgMTQuMTA1LTYuMzAyIDE0LjEwNS0xNC40MDZWMTQuMTA0QTE0LjA4OSAxNC4wODkgMCAwIDAgNDYzLjY4MiAwem03LjUwMyAyODQuMjA5YzAgNC4yMDUtMy42MDMgNy41MDctNy41MDMgNy41MDdIMjk2LjUxNXYyMC43MDdjNDIuNjE5IDUuNDAxIDcyLjYyOCAxOC45MDcgNzIuNjI4IDM0LjUxNSAwIC41OTggMCAxLjQ5OC0uMjk4IDIuMTAxLjI5OC41OTguMjk4IDEuNDk3LjI5OCAyLjF2My45MDFjMCAyMC40MDktNTEuMDE4IDM2LjkxNi0xMTQuMDQyIDM2LjkxNmgtOC4xMDVjLTU5LjEyMS0xLjIwMS0xMDUuOTQxLTE3LjQwNi0xMDUuOTQxLTM2LjkxNiAwLS45IDAtMS40OTguMzAxLTIuMTAxLS4zMDEtLjU5OS0uMzAxLTEuMjAxLS4zMDEtMS44IDAtLjYwMyAwLTEuNTAyLjMwMS0yLjEtLjMwMS0uNjAzLS4zMDEtMS41MDMtLjMwMS0yLjEwMSAwLTE1LjYwNyAzMC4zMS0yOS4xMTMgNzIuNjI4LTM0LjUxNXYtMjAuNzA3SDQ4LjMxOGMtMy44OTkgMC03LjUwMi0zLjMwMi03LjUwMi03LjUwN1YxNC4xMDRjMC0zLjg5OSAzLjYwMy03LjUwMiA3LjUwMi03LjUwMmg0MTUuMzY0YzMuOSAwIDcuNTAzIDMuNjAzIDcuNTAzIDcuNTAydjI3MC4xMDV6IiBmaWxsPSIjNEU1QTYyIiBjbGFzcz0iZmlsbC00ZTVhNjIiLz48cGF0aCBkPSJNNjkuNjI3IDQxNi4yNjRINDQzLjg3NGM1LjEwMSA2Ljg5OSAxMC4yMDEgMTMuODA0IDE1LjYwNyAyMC43MDcgNS4xMDEgNi45MDMgMTAuMiAxMy41MDYgMTUuMzA1IDIwLjQwNiA1LjQwMiA2LjkwMyAxMC41MDMgMTMuODA4IDE1LjYwNyAyMC43MTEgNS4xMDEgNi44OTkgMTAuNTAyIDEzLjUwMiAxNS42MDMgMjAuNDA2SDZjNS40MDYtNi45MDQgMTAuNTA2LTEzLjUwNyAxNS45MDgtMjAuNDA2IDUuNDAxLTYuOTAzIDEwLjUwMi0xMy44MDggMTUuOTA4LTIwLjcxMSA1LjQwMi02LjkgMTAuNTAyLTEzLjUwMyAxNS45MDgtMjAuNDA2IDUuMDk2LTYuOTA0IDEwLjUwMi0xMy44MDggMTUuOTAzLTIwLjcwN3oiIGZpbGw9IiNFNkU2RTYiIGNsYXNzPSJmaWxsLWU2ZTZlNiIvPjxwYXRoIGQ9Ik03LjgwMyA0OTcuMjkzaDQ5Ni4zOTNjMS41MDMgMCAyLjcwMyAyLjQwMSAyLjcwMyA0LjgwNCAwIDIuNjk4LTEuMiA0LjgwMy0yLjcwMyA0LjgwM0g3LjgwM2MtMS41MDIgMC0yLjY5OS0yLjEwNC0yLjY5OS00LjgwMyAwLTIuNDAzIDEuMTk3LTQuODA0IDIuNjk5LTQuODA0eiIgZmlsbD0iI0NDQ0NDQyIgY2xhc3M9ImZpbGwtY2NjY2NjIi8+PHBhdGggZD0iTTcuODAzIDQ5Ny44OTZjLTEuNTAyIDAtMi4xIDMuMzAxLTIuMSA0LjIwMSAwIDEuMi41OTggNC4yIDIuMSA0LjJoNDk2LjM5M2MxLjUwMyAwIDIuMTAxLTMgMi4xMDEtNC4yIDAtLjktLjU5OC00LjIwMS0yLjEwMS00LjIwMUg3LjgwM3oiIGZpbGw9IiNCM0IzQjMiIGNsYXNzPSJmaWxsLWIzYjNiMyIvPjxwYXRoIGQ9Ik0yNDkuMDk2IDQxNi4yNjRoMTk0Ljc3OGM1LjEwMSA2Ljg5OSAxMC4yMDEgMTMuODA0IDE1LjYwNyAyMC43MDcgNS4xMDEgNi45MDMgMTAuMiAxMy41MDYgMTUuMzA1IDIwLjQwNiA1LjQwMiA2LjkwMyAxMC41MDMgMTMuODA4IDE1LjYwNyAyMC43MTEgNS4xMDEgNi44OTkgMTAuNTAyIDEzLjUwMiAxNS42MDMgMjAuNDA2aC0yNTYuOXYtODIuMjN6IiBmaWxsPSIjQ0ZDRkNGIiBjbGFzcz0iZmlsbC1jZmNmY2YiLz48cGF0aCBkPSJNNDMuODE2IDQ3Ny40ODVoNzEuNzMyYy0xLjIwNSAzLjAwNC0yLjcwMyA1LjcwMy0zLjkwMyA4LjQwNkgzNy44MTZjMS43OTktMy4wMDQgMy44OTktNS43MDMgNi04LjQwNnpNMTIwLjY0NSA0NzcuNDg1YzcuODA3IDAgMTUuNjA2IDAgMjMuNDE0LjMwMi0xLjIwNSAyLjcwMi0yLjQwMiA1LjQwMS0zLjYwNiA4LjQwMS03Ljc5OSAwLTE1LjkwNCAwLTIzLjcwOC0uMjk3IDEuMjAxLTIuNzAzIDIuNDAxLTUuNDAyIDMuOS04LjQwNnpNMTQ3LjY1NyA0NzcuNzg3aDIzLjEwOWMtLjg5OSAyLjcwMi0xLjc5OSA1LjcwMi0yLjM5NyA4LjQwMWgtMjQuMDEzYy44OTktMyAyLjEwNC01LjY5OSAzLjMwMS04LjQwMXpNMTc0LjY2OSA0NzcuNzg3aDIzLjEwOWMtLjU5OSAzLTEuMjAxIDUuNzAyLTEuODAzIDguNzAyLTguMTAxIDAtMTUuOTA0LS4zMDEtMjQuMDA5LS4zMDEuOTA0LTIuNjk5IDEuOC01LjY5OSAyLjcwMy04LjQwMXpNMjAxLjY3OCA0NzcuNzg3YzcuODAzIDAgMTUuMzEuMzAxIDIzLjEwOS4zMDEtLjMwMSAyLjY5OS0uODk5IDUuNzAzLTEuMTk3IDguNDAxaC0yMy43MTFjLjI5Ny0zIC44OTktNS43MDIgMS43OTktOC43MDJ6TTIyOC42OSA0NzguMDg4aDIzLjEwOWMtLjMwMSAzLS4zMDEgNS43MDMtLjYwMyA4LjcwMy03Ljc5OSAwLTE1LjkwNCAwLTIzLjcwNy0uMzAyLjMwMi0yLjY5OC42MDMtNS43MDIgMS4yMDEtOC40MDF6TTI1NS42OTkgNDc4LjA4OGM3LjUwMiAwIDE1LjMwNS4yOTcgMjMuMTA5LjI5N3Y4LjQwNmgtMjMuNzA3YzAtMyAuMjk2LTUuNzAzLjU5OC04LjcwM3pNMjgyLjcxMSA0NzguMzg1aDIzLjEwOWMuMzAxIDMuMDA0LjU5OCA1LjcwMy44OTkgOC43MDctOC4xMDQgMC0xNS45MDggMC0yNC4wMDktLjMwMS4wMDEtMi43MDMtLjMtNS43MDMuMDAxLTguNDA2ek0zMDkuNzIgNDc4LjM4NWM3LjUwMiAwIDE1LjMwNiAwIDIzLjEwOC4zMDIuMzAyIDIuNzAyLjkwNCA1LjcwMiAxLjUwMiA4LjQwNWgtMjQuMDA4Yy0uMzAxLTMuMDA0LS42MDItNS43MDMtLjYwMi04LjcwN3pNMzM2LjczMiA0NzguNjg3aDIzLjEwOGMuNTk5IDMgMS40OTggNS43MDIgMi4xMDEgOC43MDItOC4xMDQgMC0xNS45MDggMC0yMy43MTEtLjI5Ny0uNTk4LTIuNzAzLTEuMTk3LTUuNzAzLTEuNDk4LTguNDA1ek0zNjMuNzQgNDc4LjY4N2gyMy4xMDljLjkwMyAzIDEuODAzIDYuMDA0IDIuNzAzIDguNzAySDM2NS44NGMtLjg5OS0zLTEuNDk3LTUuNzAyLTIuMS04LjcwMnpNMzkwLjQ1MiA0NzguNjg3YzI0LjAwOC4zMDEgNDguMDIxLjMwMSA3Mi4wMjkuMzAxIDEuNTAyIDIuNjk5IDMuMzAxIDUuNzAzIDQuNzk5IDguNzAzLTI0LjYwNiAwLTQ5LjIxOCAwLTczLjgyOC0uMzAyLS44OTktMi42OTktMi4xLTUuNzAyLTMtOC43MDJ6TTExMy4xNDYgNDY2LjY4MmgyMi4yMDljLTEuNTA2IDIuNzAzLTMuMDA0IDUuNzAzLTQuNTAyIDguNDAyaC0yMi44MTJhMTI1LjAzOSAxMjUuMDM5IDAgMCAxIDUuMTA1LTguNDAyek0xMzguOTU0IDQ2Ni42ODJoMjIuNTFjLTEuMjAxIDMtMi40MDIgNS43MDMtMy42MDMgOC43MDMtNy44MDMgMC0xNS42MDYtLjMwMS0yMy4xMDktLjMwMSAxLjIwMi0yLjY5OSAzLjAwMS01LjY5OSA0LjIwMi04LjQwMnpNMTY1LjA2MyA0NjYuNjgyYzcuNTA2IDAgMTUuMDA4IDAgMjIuNTEuMzAyLS44OTkgMi42OTgtMi4xMDEgNS40MDEtMy4wMDQgOC40MDFoLTIzLjEwNWMxLjE5Ny0zIDIuNDAyLTUuNzAzIDMuNTk5LTguNzAzek0xOTEuMTc2IDQ2Ni45ODNoMjIuNTA2Yy0uOSAyLjY5OC0xLjQ5OCA1LjcwMy0yLjQwMiA4LjQwMWgtMjMuMTA0Yy44OTUtMi42OTcgMi4xLTUuNzAyIDMtOC40MDF6TTIxNy4yODUgNDY2Ljk4M2gyMi4yMDljLS4zMDEgMy0uODk5IDUuNzAzLTEuNTAyIDguNzAzLTcuNTAyIDAtMTUuMzA2IDAtMjMuMTA5LS4zMDIuODk5LTIuNjk3IDEuNTAyLTUuNzAyIDIuNDAyLTguNDAxek0yNDMuMDk2IDQ2Ni45ODNjNy41MDIgMCAxNS4wMDQgMCAyMi41MDYuMjk3LS4yOTcgMi43MDMtLjU5OSA1LjcwMy0uNTk5IDguNDA2aC0yMy4xMDhjLjI5Ny0yLjk5OS45LTUuNzAzIDEuMjAxLTguNzAzek0yNjkuMjA1IDQ2Ny4yOGgyMi41MTF2OC43MDdjLTcuODA0IDAtMTUuMzA2LS4zMDEtMjMuMTA5LS4zMDEuMjk3LTIuNzAzLjI5Ny01LjcwMy41OTgtOC40MDZ6TTI5NS4zMTMgNDY3LjI4aDIyLjUxMWMwIDMuMDA0LjMwMSA2LjAwNC41OTkgOC43MDdoLTIzLjEwOWwtLjAwMS04LjcwN3pNMzIxLjQyNyA0NjcuMjhjNy41MDIgMCAxNC43MDMuMzAyIDIyLjIwOS4zMDIuNTk5IDIuNzAyLjg5OSA1LjcwMiAxLjQ5OCA4LjcwMi03LjgwNC0uMjk3LTE1LjMwNi0uMjk3LTIzLjEwOC0uMjk3LS4wMDEtMi43MDMtLjU5OS01LjcwMy0uNTk5LTguNzA3ek0zNDcuMjM0IDQ2Ny41ODJoMjIuNTExYy44OTkgMy4wMDQgMS41MDIgNS43MDIgMi4xIDguNzAyaC0yMi44MDdjLS42MDItMy0xLjIwMS02LTEuODA0LTguNzAyek0zNzMuMzQ4IDQ2Ny41ODJoMjIuNTA2Yy44OTkgMy4wMDQgMi4xMDEgNS43MDIgMyA4LjcwMmgtMjMuMTA4Yy0uOS0zLTEuNDk5LTUuNjk4LTIuMzk4LTguNzAyek0zOTkuNDU2IDQ2Ny41ODJjMTguOTA4IDAgMzguMTEzLjMwMSA1Ny4wMjEuMzAxIDEuNTAzIDIuNzAzIDMuMzAyIDUuNzAzIDQuODA0IDguNzAzLTE5LjgwOCAwLTM5LjMxMy0uMzAyLTU4LjgyNC0uMzAyLS45LTIuNjk4LTIuMTAyLTUuNjk4LTMuMDAxLTguNzAyek01Mi41MTkgNDY2LjM4MWMxOC45MTIgMCAzNy44MTYuMzAxIDU3LjAyMS4zMDEtMS43OTkgMi43MDMtMy41OTkgNS43MDMtNS4zOTggOC40MDJINDUuNjE1YzIuMTA1LTMgNC41MDItNS42OTkgNi45MDQtOC43MDN6TTk0LjIzNCA0NTUuNTc3aDIxLjYxMWMtMS41MDIgMy0zLjMwMSA1LjcwMy00Ljc5OSA4LjcwMy03LjUwNiAwLTE1LjAwOCAwLTIyLjUxLS4zMDEgMi4xLTIuNjk5IDMuODk5LTUuNDAyIDUuNjk4LTguNDAyek0xMTkuNDQ4IDQ1NS41NzdjNy4yMDEgMCAxNC40MDIuMzAyIDIxLjYwNi4zMDItMS40OTggMi42OTgtMyA1LjQwMS00LjIwMSA4LjQwMWgtMjIuNTFjMS44MDMtMyAzLjYwMy01LjcwMyA1LjEwNS04LjcwM3pNMTQ0LjY1NyA0NTUuODc5aDIxLjYxMWMtMS4yMDUgMi42OTgtMi40MDEgNS43MDMtMy42MDYgOC40MDFoLTIyLjUwNmMxLjUwMS0zIDIuOTk5LTUuNzAzIDQuNTAxLTguNDAxek0xNjkuNTY1IDQ1NS44NzloMjEuNjExYy0uOSAyLjY5OC0xLjgwMyA1LjcwMy0yLjcwMyA4LjQwMWgtMjIuMjA1YzEuMTk2LTIuNjk4IDIuMS01LjcwMyAzLjI5Ny04LjQwMXpNMTk0Ljc3OCA0NTUuODc5aDIxLjYwNmMtLjYwMyAzLTEuNTAyIDUuNzAzLTIuMSA4LjcwMy03LjUwNiAwLTE1LjAwNCAwLTIyLjIwOS0uMzAyLjktMi42OTggMS44LTUuNDAxIDIuNzAzLTguNDAxek0yMTkuOTgzIDQ1NS44NzljNy4yMDUgMCAxNC4xMDggMCAyMS4zMTMuMzAxLS4zMDEgMi42OTktLjkwMyA1LjY5OS0xLjIwNSA4LjQwMmgtMjIuMjA5Yy42MDMtMyAxLjIwNi01LjcwMyAyLjEwMS04LjcwM3pNMjQ0Ljg5NiA0NTYuMThoMjEuNjA2YzAgMi42OTktLjI5NyA1LjY5OS0uNTk5IDguNDAyaC0yMi4yMDljLjMwMi0yLjcwMy45LTUuNzAzIDEuMjAyLTguNDAyek0yNzAuMTA0IDQ1Ni4xOGgyMS42MTF2OC43MDNjLTcuNTA3IDAtMTQuNzA3IDAtMjIuMjEtLjMwMS4yOTktMi43MDMuMjk5LTUuNzAzLjU5OS04LjQwMnpNMjk1LjMxMyA0NTYuMThoMjEuNjExYzAgMyAuMjk3IDUuNjk5LjU5OSA4LjcwM2gtMjIuMjF2LTguNzAzek0zMjAuMjI2IDQ1Ni4xOGM3LjIwMSAwIDE0LjQwNiAwIDIxLjYwNy4yOTcuNjAzIDIuNzAzIDEuMiA1LjcwMyAxLjUwMiA4LjQwNmgtMjIuMjA5Yy0uMzAyLTIuNzAzLS41OTktNS43MDMtLjktOC43MDN6TTM0NS40MzYgNDU2LjQ3N2gyMS42MDZjLjYwMyAyLjcwMyAxLjUwMiA1LjcwMyAyLjEwMSA4LjcwMy03LjUwMiAwLTE0LjcwMyAwLTIyLjIwNS0uMjk3LS42MDMtMi43MDMtLjkwNS01LjcwMy0xLjUwMi04LjQwNnpNMzcwLjY0NSA0NTYuNDc3aDIxLjYwNmMuOTAzIDMuMDA1IDEuODA0IDUuNzAzIDIuNzAzIDguNzAzaC0yMi4yMDljLS41OTktMy0xLjQ5OC02LTIuMS04LjcwM3pNMzk1LjU1NyA0NTYuNDc3aDIxLjYwNmMxLjIwMSAzLjAwNSAyLjQwMSA1LjcwMyAzLjYwMyA4LjcwM2gtMjIuMjA5Yy0uOS0zLTEuODA0LTUuNjk5LTMtOC43MDN6TTQyMC43NjYgNDU2LjQ3N2gyOS43MTFjMS44IDMuMDA1IDMuMzAyIDYuMDA1IDQuOCA4LjcwM2gtMzAuOTEyYy0xLjIwMi0yLjY5OS0yLjM5OC01LjY5OS0zLjU5OS04LjcwM3pNNjAuOTI1IDQ1NS41NzdoMzAuMDEyYy0yLjEgMy0zLjkwMyA1LjcwMy01LjcwMyA4LjQwMkg1NC4zMjJjMi4xLTIuNjk5IDQuNDk4LTUuNjk5IDYuNjAzLTguNDAyek02OC40MjcgNDQ0Ljc3NGgyMS4wMDhjLTEuNTAyIDIuNjk4LTMuMzAxIDUuNzAyLTUuMTAxIDguNDAxSDYyLjcyM2MyLjEwMS0yLjk5OSA0LjIwNi01LjcwMiA1LjcwNC04LjQwMXpNOTIuNzM2IDQ0NC43NzRoMjEuMDA4Yy0xLjUwMiAyLjY5OC0zIDUuNzAyLTQuNTAyIDguNDAxSDg3LjYzMWMyLjEwMS0yLjY5OCAzLjYwNy01LjcwMiA1LjEwNS04LjQwMXpNMTE3LjA0NiA0NDQuNzc0aDIwLjcwN2MtLjg5OSAyLjY5OC0yLjM5NyA1LjcwMi0zLjYwMiA4LjQwMWgtMjEuNjA3YzEuNzk5LTIuNjk4IDMuMzAxLTUuNzAyIDQuNTAyLTguNDAxek0xNDEuMzU1IDQ0NC43NzRoMjAuNzA4Yy0uOSAzLTEuNzk5IDUuNzAyLTMgOC40MDFoLTIxLjYwNmMxLjQ5Ny0yLjY5OCAyLjY5OC01LjcwMiAzLjg5OC04LjQwMXpNMTY1LjM2NCA0NDQuNzc0aDIxLjAwOGMtLjU5OSAzLTEuNTAyIDUuNzAyLTIuMzk4IDguNzAyLTcuMjA1IDAtMTQuNDEgMC0yMS42MTEtLjMwMSAxLjIwMi0yLjY5OCAyLjM5OS01LjQwMSAzLjAwMS04LjQwMXpNMTg5LjY3NCA0NDQuNzc0aDIxLjAwOGMtLjU5OSAzLTEuMjAxIDUuNzAyLTEuODAzIDguNzAyaC0yMS42MDdjLjkwNC0yLjk5OSAxLjc5OS01LjcwMiAyLjQwMi04LjcwMnpNMjEzLjk4MyA0NDQuNzc0YzYuOTA0IDAgMTMuODA3LjMwMSAyMS4wMDguMzAxLS4yOTcgMi42OTktLjkgNS42OTktMS4yMDEgOC40MDFoLTIxLjYwN2MuOS0yLjk5OSAxLjE5OC01LjcwMiAxLjgtOC43MDJ6TTIzOC4yOTMgNDQ1LjA3NUgyNTljMCAyLjY5OSAwIDUuNjk5LS4yOTcgOC40MDFoLTIxLjYxMWMuNTk4LTIuNzAyLjktNS43MDIgMS4yMDEtOC40MDF6TTI2Mi42MDMgNDQ1LjA3NWgyMC43MDdjMCAyLjY5OS4zMDIgNS42OTkuMzAyIDguNzAzLTcuMjAxIDAtMTQuNDA2LS4zMDItMjEuNjA3LS4zMDIuMjk3LTIuNzAyLjI5Ny01LjcwMi41OTgtOC40MDF6TTI4Ni42MTEgNDQ1LjA3NWgyMS4wMDhjLjMwMiAzIC42MDMgNS42OTkuODk5IDguNzAzaC0yMS42MDZjMC0zLjAwNCAwLTYuMDA0LS4zMDEtOC43MDN6TTMxMC45MjEgNDQ1LjA3NWgyMS4wMDhjLjYwMyAzIC44OTkgNS42OTkgMS41MDIgOC43MDNoLTIxLjYxYy0uMjk4LTMuMDA0LS41OTktNS43MDMtLjktOC43MDN6TTMzNS4yMyA0NDUuMDc1aDIxLjAwOGMuNjAzIDMgMS4yMDEgNiAyLjEwMSA4LjcwM2gtMjEuNjA2Yy0uNjAzLTMuMDA0LS45LTUuNzAzLTEuNTAzLTguNzAzek0zNTkuNTQgNDQ1LjA3NWM2LjkwMyAwIDEzLjgwOCAwIDIwLjcwNy4yOTcgMS4yIDIuNzAzIDIuMTAxIDUuNzAzIDMuMDA0IDguNDA2aC0yMS42MWMtLjU5OS0yLjcwMy0xLjQ5OC01LjcwMy0yLjEwMS04LjcwM3pNMzg0LjE1IDQ0NS4zNzJoMjAuNzA3YzEuMjAxIDIuNzAzIDIuNDAyIDUuNzAzIDMuNjAzIDguNzAzaC0yMS42MWMtLjktMy0xLjgtNi0yLjctOC43MDN6TTQwOS4wNTkgNDQ1LjM3MmgzNS43MTZjMS41MDIgMy4wMDUgMyA1LjcwMyA0LjUwMiA4LjcwM2gtMzYuNjE1Yy0xLjIwMi0zLTIuNDAyLTYtMy42MDMtOC43MDN6TTg3LjMzNCA0MzEuMjY4aDExLjEwNWMyLjEgMCAzLjYwMy42MDMgMy4zMDEgMS41MDItLjYwMy45LTIuNzAzIDEuOC00LjgwNCAxLjhIODUuNTNjLTIuNDAxIDAtMy44OTktLjg5OS0zLjI5Ny0xLjguNi0uOSAyLjctMS41MDIgNS4xMDEtMS41MDJ6TTEwOC45NDUgNDMxLjI2OGgxMS40MDJjMi4xMDEgMCAzLjYwMy42MDMgMy4zMDEgMS41MDItLjMwMS45LTIuNDAxIDEuOC00LjgwMyAxLjhoLTExLjQwNmMtMi4xMDEgMC0zLjU5OS0uODk5LTMuMjk3LTEuOC41OTktLjkgMi42OTktMS41MDIgNC44MDMtMS41MDJ6TTEzMC44NTQgNDMxLjI2OGgxMS4xMDRjMi4zOTcgMCAzLjkuNjAzIDMuNTk5IDEuNTAyLS4zMDEgMS4yMDEtMi40MDIgMS44LTQuNTAyIDEuOGgtMTEuNDA2Yy0yLjQwMSAwLTMuODk5LS44OTktMy41OTgtMS44LjU5Ny0uOSAyLjcwMi0xLjUwMiA0LjgwMy0xLjUwMnpNMTUyLjc2MSA0MzEuMjY4aDExLjEwNWMyLjQwMSAwIDMuODk5LjYwMyAzLjU5OCAxLjUwMi0uMzAxIDEuMjAxLTIuMSAxLjgtNC41MDIgMS44aC0xMS40MDZjLTIuMTAxIDAtMy41OTktLjU5OS0zLjI5Ny0xLjguMzAyLS45IDIuMTAxLTEuNTAyIDQuNTAyLTEuNTAyek0xNzQuNjY5IDQzMS4yNjhoMTEuMTA0YzIuMTAxIDAgMy45LjYwMyAzLjU5OSAxLjgwNCAwIC44OTktMi4xMDEgMS40OTgtNC4yMDEgMS40OThoLTExLjQwNmMtMi40MDEgMC0zLjg5OS0uNTk5LTMuNTk4LTEuOC4zMDItLjkgMi4xMDEtMS41MDIgNC41MDItMS41MDJ6TTE5Ni4yNzYgNDMxLjI2OGgxMS40MDZjMi4xIDAgMy44OTkuNjAzIDMuODk5IDEuODA0LS4zMDEuODk5LTIuMTAxIDEuNDk4LTQuNTAyIDEuNDk4aC0xMS40MDZjLTIuMTAxIDAtMy45LS41OTktMy41OTktMS40OTguMDAxLTEuMjAyIDIuMTAyLTEuODA0IDQuMjAyLTEuODA0ek0yMTguMTg0IDQzMS4yNjhoMTEuNDA2YzIuMTAxIDAgMy45Ljg5OSAzLjkgMS44MDQtLjMwMS44OTktMi4xMDEgMS40OTgtNC4yMDEgMS40OThoLTExLjQwNmMtMi40MDEgMC0zLjg5OS0uNTk5LTMuODk5LTEuNDk4LS4wMDEtMS4yMDIgMi4wOTktMS44MDQgNC4yLTEuODA0ek0yNDAuMDkyIDQzMS4yNjhoMTEuMTA0YzIuNDAxIDAgNC4yMDEuODk5IDQuMjAxIDEuODA0IDAgLjg5OS0xLjc5OSAxLjc5OS00LjIwMSAxLjc5OS0zLjU5OSAwLTcuNTAyLS4zMDEtMTEuNDA2LS4zMDEtMi4xMDEgMC0zLjktLjU5OS0zLjktMS40OTguMDAxLS45MDUgMS44LTEuODA0IDQuMjAyLTEuODA0ek0yNjIuMDA0IDQzMS4yNjhoMTEuMTAxYzIuMTA0IDAgNC4yMDUuODk5IDQuMjA1IDEuODA0IDAgLjg5OS0xLjgwNCAxLjc5OS0zLjkwMyAxLjc5OWgtMTEuNDAyYy0yLjQwMSAwLTQuMjA1LS44OTktNC4yMDUtMS43OTktLjAwMS0uOTA1IDEuODAzLTEuODA0IDQuMjA0LTEuODA0ek0yODMuNjExIDQzMS4yNjhoMTEuNDA1YzIuMTAxIDAgNC4yMDEuODk5IDQuMjAxIDEuODA0LjMwMS44OTktMS41MDIgMS43OTktMy45MDQgMS43OTloLTExLjQwMWMtMi4xMDEgMC0zLjkwMy0uODk5LTQuMjA1LTEuNzk5IDAtLjkwNSAxLjgwNC0xLjgwNCAzLjkwNC0xLjgwNHpNMzA1LjUxOSA0MzEuMjY4aDExLjQwNmMyLjEwMSAwIDMuODk5Ljg5OSA0LjIwMSAxLjgwNC4zMDEuODk5LTEuNTAzIDEuNzk5LTMuNjAzIDEuNzk5aC0xMS40MDJjLTIuNDAxIDAtNC4yMDUtLjg5OS00LjUwMi0xLjc5OSAwLS45MDUgMS43OTktMS44MDQgMy45LTEuODA0ek0zMjcuNDI3IDQzMS4yNjhoMTEuMTA0YzIuNDAxIDAgNC4yMDEuODk5IDQuNTAyIDEuODA0LjMwMi44OTktMS4yIDEuNzk5LTMuNjAzIDEuNzk5aC0xMS40MDFjLTIuMTAxIDAtNC4yMDUtLjg5OS00LjIwNS0xLjc5OS0uMjk3LS45MDUgMS4yMDEtMS44MDQgMy42MDMtMS44MDR6TTM0OS4zMzUgNDMxLjI2OGgxMS4xMDRjMi4xMDEgMCA0LjIwNS44OTkgNC41MDIgMS44MDQuMzAxLjg5OS0xLjIwMSAxLjc5OS0zLjMwMSAxLjc5OWgtMTEuNDAyYy0yLjQwMSAwLTQuNTAyLS44OTktNC41MDItMS43OTktLjMtLjkwNSAxLjIwMi0xLjgwNCAzLjU5OS0xLjgwNHpNMzcwLjk0NSA0MzEuMjY4aDExLjQwMmMyLjEwNCAwIDQuMjA1Ljg5OSA0LjgwMyAxLjgwNC4zMDIuODk5LTEuMiAxLjc5OS0zLjYwMyAxLjc5OWgtMTEuNDAxYy0yLjEwMSAwLTQuMjAxLS44OTktNC41MDItMS43OTktLjMwMS0uOTA1IDEuMjAxLTEuODA0IDMuMzAxLTEuODA0ek0zOTIuODU0IDQzMS4yNjhoMTEuNDA2YzIuMSAwIDQuMi44OTkgNC43OTkgMS44MDQuMzAxIDEuMTk2LTEuMjAxIDEuNzk5LTMuMzAxIDEuNzk5aC0xMS40MDJjLTIuNDAxIDAtNC41MDItLjg5OS00LjgwMy0xLjc5OS0uMzAyLS45MDUgMS4yLTEuODA0IDMuMzAxLTEuODA0ek00MTQuNzYyIDQzMS4yNjhoMTEuMTA0YzIuNDAxIDAgNC41MDIuODk5IDUuMTAxIDEuODA0LjYwMyAxLjE5Ni0uODk5IDEuNzk5LTMuMzAyIDEuNzk5aC0xMS4xMDRjLTIuMzk3IDAtNC40OTgtLjYwMy01LjEwMS0xLjc5OS0uMzAxLS45MDUgMS4yMDEtMS44MDQgMy4zMDItMS44MDR6TTk0LjgzNyA0MTkuODYyYzMuODk5IDAgNi45MDQuOTAzIDYuOTA0IDIuMTA0IDAgLjg5OS0zLjAwNCAxLjc5OS02LjkwNCAxLjc5OXMtNy4yMDUtLjg5OS03LjIwNS0xLjc5OWMwLTEuMiAzLjMwNS0yLjEwNCA3LjIwNS0yLjEwNHpNMTExLjk0MSA0MjAuNDY1YzIuNzAzIDAgNC44MDMuNTk4IDQuODAzIDEuNTAyIDAgLjU5OC0yLjEgMS4xOTYtNC44MDMgMS4xOTYtMi40MDEgMC00Ljc5OS0uNTk5LTQuNzk5LTEuMTk2IDAtLjkwNCAyLjM5OC0xLjUwMiA0Ljc5OS0xLjUwMnoiIGZpbGw9IiNDQ0NDQ0MiIGNsYXNzPSJmaWxsLWNjY2NjYyIvPjxwYXRoIGQ9Ik0yNDUuMTk3IDQ3OC4wODhoNi42MDNjLS4zMDEgMy0uMzAxIDUuNzAzLS42MDMgOC43MDNoLTYuNjAzYy4zMDItMyAuMzAyLTUuNzAzLjYwMy04LjcwM3pNMjU1LjY5OSA0NzguMDg4YzcuNTAyIDAgMTUuMzA1LjI5NyAyMy4xMDkuMjk3djguNDA2aC0yMy43MDdjMC0zIC4yOTYtNS43MDMuNTk4LTguNzAzek0yODIuNzExIDQ3OC4zODVoMjMuMTA5Yy4zMDEgMy4wMDQuNTk4IDUuNzAzLjg5OSA4LjcwNy04LjEwNCAwLTE2LjIwNSAwLTI0LjAwOS0uMzAxLjAwMS0yLjcwMy0uMy01LjcwMy4wMDEtOC40MDZ6TTMwOS43MiA0NzguMzg1YzcuNTAyIDAgMTUuMzA2IDAgMjMuMTA4LjMwMi4zMDIgMi43MDIuOTA0IDUuNzAyIDEuNTAyIDguNDA1aC0yNC4wMDhjLS4zMDEtMy4wMDQtLjYwMi01LjcwMy0uNjAyLTguNzA3ek0zMzYuNzMyIDQ3OC42ODdoMjMuMTA4Yy41OTkgMyAxLjQ5OCA1LjcwMiAyLjEwMSA4LjcwMi04LjEwNCAwLTE1LjkwOCAwLTIzLjcxMS0uMjk3LS41OTgtMi43MDMtMS4xOTctNS43MDMtMS40OTgtOC40MDV6TTM2My43NCA0NzguNjg3aDIzLjEwOWMuOTAzIDMgMS44MDMgNi4wMDQgMi43MDMgOC43MDJIMzY1Ljg0Yy0uODk5LTMtMS40OTctNS43MDItMi4xLTguNzAyek0zOTAuNDUyIDQ3OC42ODdjMjQuMDA4LjMwMSA0OC4wMjEuMzAxIDcyLjAyOS4zMDEgMS41MDIgMi42OTkgMy4zMDEgNS43MDMgNC43OTkgOC43MDMtMjQuNjA2IDAtNDkuMjE4IDAtNzMuODI4LS4zMDItLjg5OS0yLjY5OS0yLjEtNS43MDItMy04LjcwMnpNMjQ2LjY5NSA0NjYuOTgzYzYuMzAxIDAgMTIuNjA2IDAgMTguOTA4LjI5Ny0uMjk3IDIuNzAzLS41OTkgNS43MDMtLjU5OSA4LjQwNmgtMTkuNTA2Yy41OTgtMi45OTkuODk2LTUuNzAzIDEuMTk3LTguNzAzek0yNjkuMjA1IDQ2Ny4yOGgyMi41MTF2OC43MDdjLTcuODA0IDAtMTUuMzA2LS4zMDEtMjMuMTA5LS4zMDEuMjk3LTIuNzAzLjI5Ny01LjcwMy41OTgtOC40MDZ6TTI5NS4zMTMgNDY3LjI4aDIyLjUxMWMwIDMuMDA0LjMwMSA2LjAwNC41OTkgOC43MDdoLTIzLjEwOWwtLjAwMS04LjcwN3pNMzIxLjQyNyA0NjcuMjhjNy41MDIgMCAxNC43MDMuMzAyIDIyLjIwOS4zMDIuNTk5IDIuNzAyLjg5OSA1LjcwMiAxLjQ5OCA4LjcwMi03LjgwNC0uMjk3LTE1LjMwNi0uMjk3LTIzLjEwOC0uMjk3LS4wMDEtMi43MDMtLjU5OS01LjcwMy0uNTk5LTguNzA3ek0zNDcuMjM0IDQ2Ny41ODJoMjIuNTExYy44OTkgMy4wMDQgMS41MDIgNS43MDIgMi4xIDguNzAyaC0yMi44MDdjLS42MDItMy0xLjIwMS02LTEuODA0LTguNzAyek0zNzMuMzQ4IDQ2Ny41ODJoMjIuNTA2Yy44OTkgMy4wMDQgMi4xMDEgNS43MDIgMyA4LjcwMmgtMjMuMTA4Yy0uOS0zLTEuNDk5LTUuNjk4LTIuMzk4LTguNzAyek0zOTkuNDU2IDQ2Ny41ODJjMTguOTA4IDAgMzguMTEzLjMwMSA1Ny4wMjEuMzAxIDEuNTAzIDIuNzAzIDMuMzAyIDUuNzAzIDQuODA0IDguNzAzLTE5LjgwOCAwLTM5LjMxMy0uMzAyLTU4LjgyNC0uMzAyLS45LTIuNjk4LTIuMTAyLTUuNjk4LTMuMDAxLTguNzAyek0yNDguMTk3IDQ1Ni4xOGgxOC4zMDVjMCAyLjY5OS0uMjk3IDUuNjk5LS41OTkgOC40MDJoLTE4LjkwOGMuNjAzLTIuNzAzLjkwNC01LjcwMyAxLjIwMi04LjQwMnpNMjcwLjEwNCA0NTYuMThoMjEuNjExdjguNzAzYy03LjUwNyAwLTE0LjcwNyAwLTIyLjIxLS4zMDEuMjk5LTIuNzAzLjI5OS01LjcwMy41OTktOC40MDJ6TTI5NS4zMTMgNDU2LjE4aDIxLjYxMWMwIDMgLjI5NyA1LjY5OS41OTkgOC43MDNoLTIyLjIxdi04LjcwM3pNMzIwLjIyNiA0NTYuMThjNy4yMDEgMCAxNC40MDYgMCAyMS42MDcuMjk3LjYwMyAyLjcwMyAxLjIgNS43MDMgMS41MDIgOC40MDZoLTIyLjIwOWMtLjMwMi0yLjcwMy0uNTk5LTUuNzAzLS45LTguNzAzek0zNDUuNDM2IDQ1Ni40NzdoMjEuNjA2Yy42MDMgMi43MDMgMS41MDIgNS43MDMgMi4xMDEgOC43MDMtNy41MDIgMC0xNC43MDMgMC0yMi4yMDUtLjI5Ny0uNjAzLTIuNzAzLS45MDUtNS43MDMtMS41MDItOC40MDZ6TTM3MC42NDUgNDU2LjQ3N2gyMS42MDZjLjkwMyAzLjAwNSAxLjgwNCA1LjcwMyAyLjcwMyA4LjcwM2gtMjIuMjA5Yy0uNTk5LTMtMS40OTgtNi0yLjEtOC43MDN6TTM5NS41NTcgNDU2LjQ3N2gyMS42MDZjMS4yMDEgMy4wMDUgMi40MDEgNS43MDMgMy42MDMgOC43MDNoLTIyLjIwOWMtLjktMy0xLjgwNC01LjY5OS0zLTguNzAzek00MjAuNzY2IDQ1Ni40NzdoMjkuNzExYzEuOCAzLjAwNSAzLjMwMiA2LjAwNSA0LjggOC43MDNoLTMwLjkxMmMtMS4yMDItMi42OTktMi4zOTgtNS42OTktMy41OTktOC43MDN6TTI0OS4wOTYgNDQ1LjA3NUgyNTljMCAyLjY5OSAwIDUuNjk5LS4yOTcgOC40MDFoLTEwLjIwNWMuMjk3LTIuNzAyLjU5OC01LjcwMi41OTgtOC40MDF6TTI2Mi42MDMgNDQ1LjA3NWgyMC43MDdjMCAyLjY5OS4zMDIgNS42OTkuMzAyIDguNzAzLTcuMjAxIDAtMTQuNDA2LS4zMDItMjEuNjA3LS4zMDIuMjk3LTIuNzAyLjI5Ny01LjcwMi41OTgtOC40MDF6TTI4Ni42MTEgNDQ1LjA3NWgyMS4wMDhjLjMwMiAzIC42MDMgNS42OTkuODk5IDguNzAzaC0yMS42MDZjMC0zLjAwNCAwLTYuMDA0LS4zMDEtOC43MDN6TTMxMC45MjEgNDQ1LjA3NWgyMS4wMDhjLjYwMyAzIC44OTkgNS42OTkgMS41MDIgOC43MDNoLTIxLjYxYy0uMjk4LTMuMDA0LS41OTktNS43MDMtLjktOC43MDN6TTMzNS4yMyA0NDUuMDc1aDIxLjAwOGMuNjAzIDMgMS4yMDEgNiAyLjEwMSA4LjcwM2gtMjEuNjA2Yy0uNjAzLTMuMDA0LS45LTUuNzAzLTEuNTAzLTguNzAzek0zNTkuNTQgNDQ1LjA3NWM2LjkwMyAwIDEzLjgwOCAwIDIwLjcwNy4yOTcgMS4yIDIuNzAzIDIuMTAxIDUuNzAzIDMuMDA0IDguNDA2aC0yMS42MWMtLjU5OS0yLjcwMy0xLjQ5OC01LjcwMy0yLjEwMS04LjcwM3pNMzg0LjE1IDQ0NS4zNzJoMjAuNzA3YzEuMjAxIDIuNzAzIDIuNDAyIDUuNzAzIDMuNjAzIDguNzAzaC0yMS42MWMtLjktMy0xLjgtNi0yLjctOC43MDN6TTQwOS4wNTkgNDQ1LjM3MmgzNS43MTZjMS41MDIgMy4wMDUgMyA1LjcwMyA0LjUwMiA4LjcwM2gtMzYuNjE1Yy0xLjIwMi0zLTIuNDAyLTYtMy42MDMtOC43MDN6TTI0OS4wOTYgNDMxLjI2OGgyLjEwMWMyLjQwMSAwIDQuMjAxLjg5OSA0LjIwMSAxLjgwNCAwIC44OTktMS43OTkgMS43OTktNC4yMDEgMS43OTloLTIuMTAxdi0zLjYwM3pNMjYyLjAwNCA0MzEuMjY4aDExLjEwMWMyLjEwNCAwIDQuMjA1Ljg5OSA0LjIwNSAxLjgwNCAwIC44OTktMS44MDQgMS43OTktMy45MDMgMS43OTloLTExLjQwMmMtMi40MDEgMC00LjIwNS0uODk5LTQuMjA1LTEuNzk5LS4wMDEtLjkwNSAxLjgwMy0xLjgwNCA0LjIwNC0xLjgwNHpNMjgzLjYxMSA0MzEuMjY4aDExLjQwNWMyLjEwMSAwIDQuMjAxLjg5OSA0LjIwMSAxLjgwNC4zMDEuODk5LTEuNTAyIDEuNzk5LTMuOTA0IDEuNzk5aC0xMS40MDFjLTIuMTAxIDAtMy45MDMtLjg5OS00LjIwNS0xLjc5OSAwLS45MDUgMS44MDQtMS44MDQgMy45MDQtMS44MDR6TTMwNS41MTkgNDMxLjI2OGgxMS40MDZjMi4xMDEgMCAzLjg5OS44OTkgNC4yMDEgMS44MDQuMzAxLjg5OS0xLjUwMyAxLjc5OS0zLjYwMyAxLjc5OWgtMTEuNDAyYy0yLjQwMSAwLTQuMjA1LS44OTktNC41MDItMS43OTkgMC0uOTA1IDEuNzk5LTEuODA0IDMuOS0xLjgwNHpNMzI3LjQyNyA0MzEuMjY4aDExLjEwNGMyLjQwMSAwIDQuMjAxLjg5OSA0LjUwMiAxLjgwNC4zMDIuODk5LTEuMiAxLjc5OS0zLjYwMyAxLjc5OWgtMTEuNDAxYy0yLjEwMSAwLTQuMjA1LS44OTktNC4yMDUtMS43OTktLjI5Ny0uOTA1IDEuMjAxLTEuODA0IDMuNjAzLTEuODA0ek0zNDkuMzM1IDQzMS4yNjhoMTEuMTA0YzIuMTAxIDAgNC4yMDUuODk5IDQuNTAyIDEuODA0LjMwMS44OTktMS4yMDEgMS43OTktMy4zMDEgMS43OTloLTExLjQwMmMtMi40MDEgMC00LjUwMi0uODk5LTQuNTAyLTEuNzk5LS4zLS45MDUgMS4yMDItMS44MDQgMy41OTktMS44MDR6TTM3MC45NDUgNDMxLjI2OGgxMS40MDJjMi4xMDQgMCA0LjIwNS44OTkgNC44MDMgMS44MDQuMzAyLjg5OS0xLjIgMS43OTktMy42MDMgMS43OTloLTExLjQwMWMtMi4xMDEgMC00LjIwMS0uODk5LTQuNTAyLTEuNzk5LS4zMDEtLjkwNSAxLjIwMS0xLjgwNCAzLjMwMS0xLjgwNHpNMzkyLjg1NCA0MzEuMjY4aDExLjQwNmMyLjEgMCA0LjIuODk5IDQuNzk5IDEuODA0LjMwMSAxLjE5Ni0xLjIwMSAxLjc5OS0zLjMwMSAxLjc5OWgtMTEuNDAyYy0yLjQwMSAwLTQuNTAyLS44OTktNC44MDMtMS43OTktLjMwMi0uOTA1IDEuMi0xLjgwNCAzLjMwMS0xLjgwNHpNNDE0Ljc2MiA0MzEuMjY4aDExLjEwNGMyLjQwMSAwIDQuNTAyLjg5OSA1LjEwMSAxLjgwNC42MDMgMS4xOTYtLjg5OSAxLjc5OS0zLjMwMiAxLjc5OWgtMTEuMTA0Yy0yLjM5NyAwLTQuNDk4LS42MDMtNS4xMDEtMS43OTktLjMwMS0uOTA1IDEuMjAxLTEuODA0IDMuMzAyLTEuODA0ek0yNDkuMDk2IDQ5Ny4yOTNoMjU1LjFjMS41MDMgMCAyLjcwMyAyLjQwMSAyLjcwMyA0LjgwNCAwIDIuNjk4LTEuMiA0LjgwMy0yLjcwMyA0LjgwM2gtMjU1LjF2LTkuNjA3eiIgZmlsbD0iI0I4QjhCOCIgY2xhc3M9ImZpbGwtYjhiOGI4Ii8+PHBhdGggZD0iTTI0OS4wOTYgNTA2LjI5N2gyNTUuMWMxLjUwMyAwIDIuMTAxLTMgMi4xMDEtNC4yIDAtLjktLjU5OC00LjIwMS0yLjEwMS00LjIwMWgtMjU1LjF2OC40MDF6IiBmaWxsPSIjQTFBMUExIiBjbGFzcz0iZmlsbC1hMWExYTEiLz48cGF0aCBkPSJNNTEwLjQ5OCA0OTUuNzk1Yy0uMjk3LS4zMDEtLjU5OS0uNjAzLS44OTktLjkwMy00LjgwNC02LjYwMy05LjkwNC0xMy4yMDUtMTUuMDA1LTE5LjgwOC01LjEwNC02LjktMTAuMjA1LTEzLjgwNC0xNS42MDYtMjAuNzA3LTUuMTA0LTYuOTA0LTEwLjIwNS0xMy44MDQtMTUuNjA2LTIwLjQwNmwtMTUuMzA2LTIwLjcxMWMtMS4yMDEtMS4xOTctMi43MDMtMi4xMDEtNC4yMDEtMi4xMDFINjkuNjI3YTUuMjY3IDUuMjY3IDAgMCAwLTQuMjA1IDIuMTAxYy01LjM5OCA2LjkwMy0xMC44MDQgMTMuODA4LTE1LjkwNCAyMC43MTEtNS40MDIgNi42MDMtMTAuNTA2IDEzLjUwMi0xNS45MDQgMjAuNDA2LTUuNDA2IDYuOTAzLTEwLjUwNiAxMy44MDctMTUuOTA4IDIwLjcwN2E2NTk4Ny43OTIgNjU5ODcuNzkyIDAgMCAwLTE1LjMwNSAxOS44MDhsLS45MDQuOTAzQy4zMDEgNDk3LjU5NCAwIDQ5OS45OTYgMCA1MDIuMDk3IDAgNTA2LjU5OSAyLjQwMiA1MTIgNy44MDMgNTEyaDQ5Ni4zOTNjNS40MDIgMCA3LjgwNC01LjQwMSA3LjgwNC05LjkwMyAwLTIuMTAxLS4zMDEtNC4yMDEtMS41MDItNi4zMDJ6bS02LjMwMiAxMS4xMDRINy44MDNjLTEuNTAyIDAtMi42OTktMi4xMDQtMi42OTktNC44MDMgMC0xLjIwMS4yOTctMi43MDMuODk2LTMuNjAzIDAgMCAuMzAxLS4zMDIuMzAxLS41OTkgNS4xMDQtNi42MDMgMTAuNTA2LTEzLjIwNSAxNS42MDctMTkuODA4IDUuNDAxLTYuOTAzIDEwLjUwMi0xMy44MDggMTUuOTA4LTIwLjcxMSA1LjQwMi02LjkgMTAuNTAyLTEzLjUwMyAxNS45MDgtMjAuNDA2IDUuMDk3LTYuOTAzIDEwLjUwMi0xMy44MDggMTUuOTA0LTIwLjcwN0g0NDMuODc1YzUuMTAxIDYuODk5IDEwLjIwMSAxMy44MDQgMTUuNjA3IDIwLjcwNyA1LjEwMSA2LjkwMyAxMC4yIDEzLjUwNiAxNS4zMDUgMjAuNDA2IDUuNDAyIDYuOTAzIDEwLjUwMyAxMy44MDggMTUuNjA3IDIwLjcxMSA1LjEwMSA2LjYwMyAxMC4yIDEzLjIwNSAxNS4zMDYgMjAuMTA0bC4yOTcuMzAyYy42MDMuODk5LjkwMyAyLjQwMS45MDMgMy42MDMtLjAwMSAyLjctMS4yMDEgNC44MDQtMi43MDQgNC44MDR6IiBmaWxsPSIjNEU1QTYyIiBjbGFzcz0iZmlsbC00ZTVhNjIiLz48L3N2Zz4=;labelPosition=center;align=center;fontColor=#5C068C;" parent="FZ2FZ6DYbbDXQQriU7j4-1" vertex="1">
                    <mxGeometry x="850" y="240" width="80" height="80" as="geometry"/>
                </mxCell>
                <mxCell id="7" style="edgeStyle=none;html=1;entryX=0;entryY=0.5;entryDx=0;entryDy=0;endArrow=block;endFill=1;exitX=1;exitY=0.5;exitDx=0;exitDy=0;fontColor=#5C068C;strokeColor=#5C068C;entryPerimeter=0;" parent="FZ2FZ6DYbbDXQQriU7j4-1" source="22" target="29" edge="1">
                    <mxGeometry relative="1" as="geometry">
                        <mxPoint x="151.11" y="160" as="sourcePoint"/>
                        <mxPoint x="200" y="178.21000000000004" as="targetPoint"/>
                    </mxGeometry>
                </mxCell>
                <mxCell id="8" style="edgeStyle=none;html=1;exitX=1;exitY=0.5;exitDx=0;exitDy=0;endArrow=block;endFill=1;entryX=0;entryY=0.5;entryDx=0;entryDy=0;fontColor=#5C068C;strokeColor=#5C068C;exitPerimeter=0;" parent="FZ2FZ6DYbbDXQQriU7j4-1" source="29" target="23" edge="1">
                    <mxGeometry relative="1" as="geometry">
                        <mxPoint x="328.8899999999999" y="160" as="targetPoint"/>
                        <mxPoint x="280" y="178.21000000000004" as="sourcePoint"/>
                    </mxGeometry>
                </mxCell>
                <mxCell id="19" style="edgeStyle=none;html=1;entryX=0;entryY=0.25;entryDx=0;entryDy=0;fontColor=#5C068C;endArrow=block;endFill=1;exitX=1;exitY=0.5;exitDx=0;exitDy=0;strokeColor=#5C068C;" parent="FZ2FZ6DYbbDXQQriU7j4-1" source="23" target="13" edge="1">
                    <mxGeometry relative="1" as="geometry">
                        <mxPoint x="399.9999999999998" y="160" as="sourcePoint"/>
                        <Array as="points"/>
                    </mxGeometry>
                </mxCell>
                <mxCell id="10" value="Scenario information" style="shape=image;verticalLabelPosition=bottom;labelBackgroundColor=#ffffff;verticalAlign=top;aspect=fixed;imageAspect=0;image=data:image/svg+xml,PHN2ZyB4bWxuczpjYz0iaHR0cDovL2NyZWF0aXZlY29tbW9ucy5vcmcvbnMjIiB4bWxuczpkYz0iaHR0cDovL3B1cmwub3JnL2RjL2VsZW1lbnRzLzEuMS8iIHhtbG5zOmlua3NjYXBlPSJodHRwOi8vd3d3Lmlua3NjYXBlLm9yZy9uYW1lc3BhY2VzL2lua3NjYXBlIiB4bWxuczpyZGY9Imh0dHA6Ly93d3cudzMub3JnLzE5OTkvMDIvMjItcmRmLXN5bnRheC1ucyMiIHhtbG5zOnNvZGlwb2RpPSJodHRwOi8vc29kaXBvZGkuc291cmNlZm9yZ2UubmV0L0RURC9zb2RpcG9kaS0wLmR0ZCIgeG1sbnM6c3ZnPSJodHRwOi8vd3d3LnczLm9yZy8yMDAwL3N2ZyIgeG1sbnM9Imh0dHA6Ly93d3cudzMub3JnLzIwMDAvc3ZnIiB4bWxuczp4bGluaz0iaHR0cDovL3d3dy53My5vcmcvMTk5OS94bGluayIgdmVyc2lvbj0iMS4xIiBpZD0ic3ZnNDk0MDMiIGlua3NjYXBlOnZlcnNpb249IjAuOTIuMyAoMjQwNTU0NiwgMjAxOC0wMy0xMSkiIHNvZGlwb2RpOmRvY25hbWU9Impzb25fMS5zdmciIHg9IjBweCIgeT0iMHB4IiB2aWV3Qm94PSIwIDAgMzEuODggMzYuNDQiIHN0eWxlPSJlbmFibGUtYmFja2dyb3VuZDpuZXcgMCAwIDMxLjg4IDM2LjQ0OyIgeG1sOnNwYWNlPSJwcmVzZXJ2ZSI+JiN4YTs8c29kaXBvZGk6bmFtZWR2aWV3IGJvcmRlcmNvbG9yPSIjNjY2NjY2IiBib3JkZXJvcGFjaXR5PSIxIiBmaXQtbWFyZ2luLWJvdHRvbT0iMCIgZml0LW1hcmdpbi1sZWZ0PSIwIiBmaXQtbWFyZ2luLXJpZ2h0PSIwIiBmaXQtbWFyZ2luLXRvcD0iMCIgZ3JpZHRvbGVyYW5jZT0iMTAiIGd1aWRldG9sZXJhbmNlPSIxMCIgaWQ9Im5hbWVkdmlldzQ5NDA1IiBpbmtzY2FwZTpjdXJyZW50LWxheWVyPSJzdmc0OTQwMyIgaW5rc2NhcGU6Y3g9IjIxLjI1NDYzOCIgaW5rc2NhcGU6Y3k9IjI0LjI5NDgzNyIgaW5rc2NhcGU6cGFnZW9wYWNpdHk9IjAiIGlua3NjYXBlOnBhZ2VzaGFkb3c9IjIiIGlua3NjYXBlOndpbmRvdy1oZWlnaHQ9IjEwMTciIGlua3NjYXBlOndpbmRvdy1tYXhpbWl6ZWQ9IjEiIGlua3NjYXBlOndpbmRvdy13aWR0aD0iMTkyMCIgaW5rc2NhcGU6d2luZG93LXg9Ii04IiBpbmtzY2FwZTp3aW5kb3cteT0iLTgiIGlua3NjYXBlOnpvb209IjE2Ljc0NzMwMSIgb2JqZWN0dG9sZXJhbmNlPSIxMCIgcGFnZWNvbG9yPSIjZmZmZmZmIiBzaG93Z3JpZD0iZmFsc2UiPiYjeGE7CTwvc29kaXBvZGk6bmFtZWR2aWV3PiYjeGE7PGcgaWQ9Imc0OTQwMSIgdHJhbnNmb3JtPSJ0cmFuc2xhdGUoLTEuMTk1MzEsLTEuMTk0NzI4NSkiPiYjeGE7CTx0aXRsZSBpZD0idGl0bGU0OTM0NSI+UGFnZS0xPC90aXRsZT4mI3hhOwk8ZyBpZD0iZ3JvdXA0MDA0LTEiIHRyYW5zZm9ybT0idHJhbnNsYXRlKDEuMTk1MzEsLTEuMTk1MzEpIj4mI3hhOwkJPHRpdGxlIGlkPSJ0aXRsZTQ5MzQ3Ij5KU09OICMxPC90aXRsZT4mI3hhOwkJPGcgaWQ9Imdyb3VwNDAwNS0yIj4mI3hhOwkJCTx0aXRsZSBpZD0idGl0bGU0OTM0OSI+RE9DICMxPC90aXRsZT4mI3hhOwkJCTxnIGlkPSJzaGFwZTQwMDYtMyIgdHJhbnNmb3JtPSJ0cmFuc2xhdGUoNC41NTQ1NikiPiYjeGE7CQkJCTx0aXRsZSBpZD0idGl0bGU0OTM1MSI+U2hlZXQuNDAwNjwvdGl0bGU+JiN4YTsJCQkJPHBhdGggaWQ9InBhdGg0OTM1MyIgaW5rc2NhcGU6Y29ubmVjdG9yLWN1cnZhdHVyZT0iMCIgc3R5bGU9ImZpbGw6I0UyRTVFNzsiIGQ9Ik0yLjI4LDIuMzlDMS4wMiwyLjM5LDAsMy40MiwwLDQuNjd2MzEuODggICAgICBjMCwxLjI1LDEuMDIsMi4yOCwyLjI4LDIuMjhoMjIuNzdjMS4yNSwwLDIuMjgtMS4wMywyLjI4LTIuMjhWMTEuNWwtOS4xMS05LjExSDIuMjh6Ii8+JiN4YTsJCQk8L2c+JiN4YTsJCQk8ZyBpZD0ic2hhcGU0MDA3LTUiIHRyYW5zZm9ybT0idHJhbnNsYXRlKDIyLjc3MjgsLTI3LjMyNzQpIj4mI3hhOwkJCQk8dGl0bGUgaWQ9InRpdGxlNDkzNTYiPlNoZWV0LjQwMDc8L3RpdGxlPiYjeGE7CQkJCTxwYXRoIGlkPSJwYXRoNDkzNTgiIGlua3NjYXBlOmNvbm5lY3Rvci1jdXJ2YXR1cmU9IjAiIHN0eWxlPSJmaWxsOiNCMEI3QkQ7IiBkPSJNMi4yOCwzOC44M2g2LjgzTDAsMjkuNzJ2Ni44MyAgICAgIEMwLDM3LjgsMS4wMiwzOC44MywyLjI4LDM4LjgzeiIvPiYjeGE7CQkJPC9nPiYjeGE7CQkJPGcgaWQ9InNoYXBlNDAwOC03IiB0cmFuc2Zvcm09InRyYW5zbGF0ZSgyNS4wNTAxLC0yMC40OTU1KSI+JiN4YTsJCQkJPHRpdGxlIGlkPSJ0aXRsZTQ5MzYxIj5TaGVldC40MDA4PC90aXRsZT4mI3hhOwkJCQk8cGF0aCBpZD0icGF0aDQ5MzYzIiBpbmtzY2FwZTpjb25uZWN0b3ItY3VydmF0dXJlPSIwIiBzdHlsZT0iZmlsbDojQ0FEMUQ4OyIgZD0iTTYuODMsMzguODNMMCwzMmg2LjgzVjM4LjgzeiIvPiYjeGE7CQkJPC9nPiYjeGE7CQkJPGcgaWQ9InNoYXBlNDAwOS05IiB0cmFuc2Zvcm09InRyYW5zbGF0ZSgwLC01LjY5MzIpIj4mI3hhOwkJCQk8dGl0bGUgaWQ9InRpdGxlNDkzNjYiPlNoZWV0LjQwMDk8L3RpdGxlPiYjeGE7CQkJCTxwYXRoIGlkPSJwYXRoNDkzNjgiIGlua3NjYXBlOmNvbm5lY3Rvci1jdXJ2YXR1cmU9IjAiIHN0eWxlPSJmaWxsOiNFOUFDNDc7IiBkPSJNMjcuMzMsMzcuNjljMCwwLjYyLTAuNTIsMS4xNC0xLjE0LDEuMTRIMS4xNCAgICAgIEMwLjUxLDM4LjgzLDAsMzguMzEsMCwzNy42OVYyNi4zYzAtMC42MiwwLjUxLTEuMTQsMS4xNC0xLjE0aDI1LjA1YzAuNjIsMCwxLjE0LDAuNTIsMS4xNCwxLjE0TDI3LjMzLDM3LjY5eiIvPiYjeGE7CQkJPC9nPiYjeGE7CQkJPGcgaWQ9InNoYXBlNDAxMC0xMSIgdHJhbnNmb3JtPSJ0cmFuc2xhdGUoNC41NTQ1NiwtNC41NTQ1NikiPiYjeGE7CQkJCTx0aXRsZSBpZD0idGl0bGU0OTM3MSI+U2hlZXQuNDAxMDwvdGl0bGU+JiN4YTsJCQkJPHBhdGggaWQ9InBhdGg0OTM3MyIgaW5rc2NhcGU6Y29ubmVjdG9yLWN1cnZhdHVyZT0iMCIgc3R5bGU9ImZpbGw6I0NBRDFEODsiIGQ9Ik0yMS42MywzNy42OUgwdjEuMTRoMjEuNjMgICAgICBjMC42MywwLDEuMTQtMC41MiwxLjE0LTEuMTR2LTEuMTRDMjIuNzcsMzcuMTgsMjIuMjYsMzcuNjksMjEuNjMsMzcuNjl6Ii8+JiN4YTsJCQk8L2c+JiN4YTsJCTwvZz4mI3hhOwkJPGcgaWQ9Imdyb3VwNDAxMS0xMyIgdHJhbnNmb3JtPSJ0cmFuc2xhdGUoMS45ODUzOCwtOC45MDQ3NykiPiYjeGE7CQkJPHRpdGxlIGlkPSJ0aXRsZTQ5Mzc3Ij5KU09OLjM2MzM5PC90aXRsZT4mI3hhOwkJCTxnIGlkPSJzaGFwZTQwMTItMTQiIHRyYW5zZm9ybT0idHJhbnNsYXRlKDAsLTYuNDA0MDZlLTUpIj4mI3hhOwkJCQk8dGl0bGUgaWQ9InRpdGxlNDkzNzkiPlNoZWV0LjQwMTI8L3RpdGxlPiYjeGE7CQkJCTxwYXRoIGlkPSJwYXRoNDkzODEiIGlua3NjYXBlOmNvbm5lY3Rvci1jdXJ2YXR1cmU9IjAiIHN0eWxlPSJmaWxsOiNGRkZGRkY7IiBkPSJNNC4yLDMxLjc4djUuMzRjMCwwLjMzLTAuMDYsMC42LTAuMTgsMC44MiAgICAgIGMtMC4xMiwwLjIyLTAuMjgsMC40LTAuNDcsMC41M2MtMC4yLDAuMTMtMC40MywwLjIzLTAuNjksMC4yOHMtMC41MiwwLjA4LTAuNzksMC4wOGMtMC4xNCwwLTAuMy0wLjAyLTAuNDgtMC4wNSAgICAgIGMtMC4xOS0wLjAyLTAuMzgtMC4wNy0wLjU3LTAuMTNjLTAuMi0wLjA1LTAuMzgtMC4xMi0wLjU2LTAuMkMwLjI4LDM4LjM4LDAuMTIsMzguMywwLDM4LjJsMC40Ny0wLjc1ICAgICAgYzAuMDcsMC4wNCwwLjE1LDAuMDksMC4yNywwLjEzYzAuMTIsMC4wNSwwLjI0LDAuMDksMC4zOCwwLjEzYzAuMTMsMC4wNCwwLjI4LDAuMDgsMC40MywwLjExYzAuMTQsMC4wMywwLjI4LDAuMDUsMC40MSwwLjA1ICAgICAgYzAuMzMsMCwwLjU5LTAuMDcsMC43OS0wLjE5YzAuMi0wLjEzLDAuMy0wLjM1LDAuMzEtMC42NXYtNS4yNUw0LjIsMzEuNzh6Ii8+JiN4YTsJCQk8L2c+JiN4YTsJCQk8ZyBpZD0ic2hhcGU0MDEzLTE2IiB0cmFuc2Zvcm09InRyYW5zbGF0ZSg1Ljc3MDA2LC0wLjAwOTQ3ODAxKSI+JiN4YTsJCQkJPHRpdGxlIGlkPSJ0aXRsZTQ5Mzg0Ij5TaGVldC40MDEzPC90aXRsZT4mI3hhOwkJCQk8cGF0aCBpZD0icGF0aDQ5Mzg2IiBpbmtzY2FwZTpjb25uZWN0b3ItY3VydmF0dXJlPSIwIiBzdHlsZT0iZmlsbDojRkZGRkZGOyIgZD0iTTMuOTgsMzYuOTFjMCwwLjI1LTAuMDUsMC40OS0wLjE1LDAuNzIgICAgICBjLTAuMSwwLjIzLTAuMjUsMC40NC0wLjQzLDAuNjJjLTAuMTksMC4xNy0wLjQyLDAuMzEtMC42OSwwLjQyYy0wLjI3LDAuMS0wLjU4LDAuMTYtMC45MywwLjE2Yy0wLjE1LDAtMC4zLTAuMDEtMC40Ni0wLjAzICAgICAgQzEuMTYsMzguNzksMSwzOC43NiwwLjg0LDM4LjczYy0wLjE2LTAuMDQtMC4zMi0wLjA5LTAuNDYtMC4xNkMwLjIzLDM4LjUxLDAuMTEsMzguNDMsMCwzOC4zM2wwLjItMC44ICAgICAgYzAuMDgsMC4wNSwwLjE5LDAuMSwwLjMzLDAuMTVjMC4xMywwLjA0LDAuMjcsMC4wOSwwLjQxLDAuMTNzMC4yOCwwLjA3LDAuNDMsMC4xYzAuMTQsMC4wMiwwLjI3LDAuMDMsMC40LDAuMDMgICAgICBjMC4zOCwwLDAuNjctMC4wOSwwLjg3LTAuMjZjMC4yLTAuMTgsMC4zLTAuNDQsMC4zLTAuNzljMC0wLjIxLTAuMDctMC4zOS0wLjIxLTAuNTRjLTAuMTUtMC4xNS0wLjMyLTAuMjgtMC41NC0wLjQgICAgICBjLTAuMjEtMC4xMi0wLjQ0LTAuMjUtMC42OS0wLjM3Yy0wLjI1LTAuMTItMC40OC0wLjI2LTAuNy0wLjQyYy0wLjIyLTAuMTctMC40LTAuMzYtMC41NC0wLjU5Yy0wLjE0LTAuMjItMC4yMS0wLjUtMC4yMS0wLjgzICAgICAgYzAtMC4zMSwwLjA1LTAuNTgsMC4xNi0wLjgxYzAuMTItMC4yNCwwLjI3LTAuNDQsMC40Ni0wLjZjMC4xOC0wLjE3LDAuNC0wLjI5LDAuNjYtMC4zOGMwLjI1LTAuMDksMC41MS0wLjEzLDAuNzktMC4xMyAgICAgIGMwLjI5LDAsMC41OCwwLjAzLDAuODcsMC4wOHMwLjUyLDAuMTQsMC43LDAuMjVjLTAuMDMsMC4wOC0wLjA4LDAuMTctMC4xMywwLjI3Yy0wLjA1LDAuMS0wLjA5LDAuMTktMC4xNCwwLjI3ICAgICAgYy0wLjA0LDAuMDgtMC4wOCwwLjE1LTAuMTEsMC4yMWMtMC4wMywwLjA1LTAuMDUsMC4wOS0wLjA1LDAuMDljLTAuMDQtMC4wMi0wLjA4LTAuMDQtMC4xMy0wLjA3Yy0wLjA1LTAuMDMtMC4xMS0wLjA2LTAuMi0wLjEgICAgICBjLTAuMDktMC4wMy0wLjItMC4wNS0wLjM0LTAuMDZjLTAuMTUtMC4wMS0wLjMzLTAuMDEtMC41NSwwLjAxYy0wLjEzLDAuMDEtMC4yNCwwLjA1LTAuMzYsMC4xMWMtMC4xMSwwLjA2LTAuMjEsMC4xMy0wLjI5LDAuMjEgICAgICBjLTAuMDksMC4wOS0wLjE2LDAuMTktMC4yMSwwLjNDMS4xMywzMy41LDEuMTEsMzMuNiwxLjExLDMzLjdjMCwwLjI1LDAuMDcsMC40NSwwLjIxLDAuNmMwLjE0LDAuMTUsMC4zMiwwLjI5LDAuNTMsMC40ICAgICAgYzAuMjEsMC4xMiwwLjQ0LDAuMjMsMC42OSwwLjM0YzAuMjUsMC4xLDAuNDgsMC4yNCwwLjY5LDAuMzljMC4yMiwwLjE2LDAuNCwwLjM1LDAuNTQsMC41OEMzLjkxLDM2LjI0LDMuOTgsMzYuNTQsMy45OCwzNi45MXoiLz4mI3hhOwkJCTwvZz4mI3hhOwkJCTxnIGlkPSJzaGFwZTQwMTQtMTgiIHRyYW5zZm9ybT0idHJhbnNsYXRlKDEwLjc3ODQpIj4mI3hhOwkJCQk8dGl0bGUgaWQ9InRpdGxlNDkzODkiPlNoZWV0LjQwMTQ8L3RpdGxlPiYjeGE7CQkJCTxwYXRoIGlkPSJwYXRoNDkzOTEiIGlua3NjYXBlOmNvbm5lY3Rvci1jdXJ2YXR1cmU9IjAiIHN0eWxlPSJmaWxsOiNGRkZGRkY7IiBkPSJNNS43MSwzNS4zMmMwLDAuNTgtMC4wNywxLjA4LTAuMjEsMS41MiAgICAgIGMtMC4xNSwwLjQ1LTAuMzUsMC44MS0wLjYxLDEuMWMtMC4yNiwwLjI5LTAuNTYsMC41MS0wLjksMC42NmMtMC4zNSwwLjE1LTAuNzIsMC4yMy0xLjEzLDAuMjNzLTAuNzktMC4wOC0xLjEzLTAuMjMgICAgICBjLTAuMzUtMC4xNS0wLjY1LTAuMzctMC45MS0wLjY2Yy0wLjI1LTAuMjktMC40Ni0wLjY1LTAuNi0xLjFDMC4wNywzNi40LDAsMzUuOSwwLDM1LjMyYzAtMC41OCwwLjA3LTEuMDksMC4yMi0xLjUyICAgICAgYzAuMTQtMC40NCwwLjM1LTAuOCwwLjYtMS4xYzAuMjYtMC4yOSwwLjU2LTAuNTEsMC45MS0wLjY2YzAuMzQtMC4xNSwwLjcyLTAuMjMsMS4xMy0wLjIzczAuNzgsMC4wOCwxLjEzLDAuMjMgICAgICBjMC4zNCwwLjE1LDAuNjQsMC4zNywwLjksMC42NmMwLjI2LDAuMywwLjQ2LDAuNjYsMC42MSwxLjFDNS42NCwzNC4yMyw1LjcxLDM0Ljc0LDUuNzEsMzUuMzJ6IE0yLjgzLDM3LjkyICAgICAgYzAuMjMsMCwwLjQ1LTAuMDUsMC42Ni0wLjE0YzAuMi0wLjA5LDAuMzktMC4yNCwwLjU1LTAuNDRjMC4xNy0wLjIxLDAuMy0wLjQ3LDAuMzktMC44MWMwLjA5LTAuMzMsMC4xNC0wLjczLDAuMTUtMS4yMSAgICAgIGMtMC4wMS0wLjQ3LTAuMDYtMC44Ni0wLjE1LTEuMTljLTAuMDktMC4zMi0wLjIxLTAuNTktMC4zNy0wLjhjLTAuMTYtMC4yMS0wLjM0LTAuMzctMC41NC0wLjQ2cy0wLjQxLTAuMTQtMC42NC0wLjE0ICAgICAgYy0wLjIzLDAtMC40NCwwLjA0LTAuNjUsMC4xM3MtMC40LDAuMjQtMC41NiwwLjQ0Yy0wLjE2LDAuMjEtMC4yOSwwLjQ4LTAuMzksMC44MWMtMC4wOSwwLjMzLTAuMTQsMC43My0wLjE1LDEuMjEgICAgICBjMC4wMSwwLjQ2LDAuMDYsMC44NiwwLjE1LDEuMTljMC4wOSwwLjMzLDAuMjEsMC42LDAuMzcsMC44MWMwLjE2LDAuMiwwLjM0LDAuMzUsMC41NCwwLjQ1QzIuMzksMzcuODcsMi42MSwzNy45MiwyLjgzLDM3LjkyeiIvPiYjeGE7CQkJPC9nPiYjeGE7CQkJPGcgaWQ9InNoYXBlNDAxNS0yMCIgdHJhbnNmb3JtPSJ0cmFuc2xhdGUoMTguMDY1OSwtMC4wNDYzMDE0KSI+JiN4YTsJCQkJPHRpdGxlIGlkPSJ0aXRsZTQ5Mzk0Ij5TaGVldC40MDE1PC90aXRsZT4mI3hhOwkJCQk8cGF0aCBpZD0icGF0aDQ5Mzk2IiBpbmtzY2FwZTpjb25uZWN0b3ItY3VydmF0dXJlPSIwIiBzdHlsZT0iZmlsbDojRkZGRkZGOyIgZD0iTTQuOTYsMzEuOTd2Ni44NkgzLjgzTDEuMTQsMzQuMXY0LjczSDB2LTYuODYgICAgICBoMS4xNGwyLjY5LDQuNzN2LTQuNzNMNC45NiwzMS45N3oiLz4mI3hhOwkJCTwvZz4mI3hhOwkJPC9nPiYjeGE7CTwvZz4mI3hhOzwvZz4mI3hhOzwvc3ZnPg==;fontColor=#5C068C;" parent="FZ2FZ6DYbbDXQQriU7j4-1" vertex="1">
                    <mxGeometry x="563.6700000000001" y="340" width="71.11" height="80" as="geometry"/>
                </mxCell>
                <mxCell id="11" value="Server" style="rounded=0;whiteSpace=wrap;html=1;fillColor=#e1d5e7;strokeColor=#5C068C;fontColor=#5C068C;" parent="FZ2FZ6DYbbDXQQriU7j4-1" vertex="1">
                    <mxGeometry x="520" y="80" width="160" height="40" as="geometry"/>
                </mxCell>
                <mxCell id="15" style="edgeStyle=none;html=1;entryX=0;entryY=0.5;entryDx=0;entryDy=0;fontColor=#5C068C;endArrow=block;endFill=1;strokeColor=#5C068C;" parent="FZ2FZ6DYbbDXQQriU7j4-1" source="13" target="0" edge="1">
                    <mxGeometry relative="1" as="geometry"/>
                </mxCell>
                <mxCell id="14" value="Visualization" style="rounded=0;whiteSpace=wrap;html=1;fillColor=#e1d5e7;strokeColor=#5C068C;fontColor=#5C068C;" parent="FZ2FZ6DYbbDXQQriU7j4-1" vertex="1">
                    <mxGeometry x="800" y="80" width="160" height="40" as="geometry"/>
                </mxCell>
                <mxCell id="17" style="edgeStyle=none;html=1;fontColor=#5C068C;endArrow=none;endFill=0;strokeColor=#5C068C;" parent="FZ2FZ6DYbbDXQQriU7j4-1" source="16" edge="1">
                    <mxGeometry relative="1" as="geometry">
                        <mxPoint x="760" y="280" as="targetPoint"/>
                    </mxGeometry>
                </mxCell>
                <mxCell id="16" value="Message protocol" style="rounded=0;whiteSpace=wrap;html=1;fillColor=none;strokeColor=#5C068C;fontColor=#5C068C;" parent="FZ2FZ6DYbbDXQQriU7j4-1" vertex="1">
                    <mxGeometry x="720" y="360" width="80" height="40" as="geometry"/>
                </mxCell>
                <mxCell id="18" value="Optimization-based approach" style="rounded=0;whiteSpace=wrap;html=1;fillColor=#e1d5e7;strokeColor=#5C068C;fontColor=#5C068C;" parent="FZ2FZ6DYbbDXQQriU7j4-1" vertex="1">
                    <mxGeometry x="80" y="80" width="320" height="40" as="geometry"/>
                </mxCell>
                <mxCell id="21" style="edgeStyle=none;html=1;exitX=0.5;exitY=1;exitDx=0;exitDy=0;fontColor=#5C068C;endArrow=none;endFill=0;strokeColor=#5C068C;" parent="FZ2FZ6DYbbDXQQriU7j4-1" source="20" edge="1">
                    <mxGeometry relative="1" as="geometry">
                        <mxPoint x="460" y="180" as="targetPoint"/>
                    </mxGeometry>
                </mxCell>
                <mxCell id="20" value="Add time and scenario information" style="rounded=0;whiteSpace=wrap;html=1;fillColor=none;strokeColor=#5C068C;fontColor=#5C068C;" parent="FZ2FZ6DYbbDXQQriU7j4-1" vertex="1">
                    <mxGeometry x="410" y="10" width="100" height="60" as="geometry"/>
                </mxCell>
                <mxCell id="22" value="Problem&#10;instance" style="shape=image;verticalLabelPosition=bottom;labelBackgroundColor=none;verticalAlign=top;aspect=fixed;imageAspect=0;image=data:image/svg+xml,PHN2ZyB4bWxuczpjYz0iaHR0cDovL2NyZWF0aXZlY29tbW9ucy5vcmcvbnMjIiB4bWxuczpkYz0iaHR0cDovL3B1cmwub3JnL2RjL2VsZW1lbnRzLzEuMS8iIHhtbG5zOmlua3NjYXBlPSJodHRwOi8vd3d3Lmlua3NjYXBlLm9yZy9uYW1lc3BhY2VzL2lua3NjYXBlIiB4bWxuczpyZGY9Imh0dHA6Ly93d3cudzMub3JnLzE5OTkvMDIvMjItcmRmLXN5bnRheC1ucyMiIHhtbG5zOnNvZGlwb2RpPSJodHRwOi8vc29kaXBvZGkuc291cmNlZm9yZ2UubmV0L0RURC9zb2RpcG9kaS0wLmR0ZCIgeG1sbnM6c3ZnPSJodHRwOi8vd3d3LnczLm9yZy8yMDAwL3N2ZyIgeG1sbnM9Imh0dHA6Ly93d3cudzMub3JnLzIwMDAvc3ZnIiB4bWxuczp4bGluaz0iaHR0cDovL3d3dy53My5vcmcvMTk5OS94bGluayIgdmVyc2lvbj0iMS4xIiBpZD0ic3ZnNDc1MTkiIGlua3NjYXBlOnZlcnNpb249IjAuOTIuMyAoMjQwNTU0NiwgMjAxOC0wMy0xMSkiIHNvZGlwb2RpOmRvY25hbWU9ImdlbmVyaWNfZmlsZV8xLnN2ZyIgeD0iMHB4IiB5PSIwcHgiIHZpZXdCb3g9IjAgMCAzMS44OCAzNi40NCIgc3R5bGU9ImVuYWJsZS1iYWNrZ3JvdW5kOm5ldyAwIDAgMzEuODggMzYuNDQ7IiB4bWw6c3BhY2U9InByZXNlcnZlIj4mI3hhOzxzb2RpcG9kaTpuYW1lZHZpZXcgYm9yZGVyY29sb3I9IiM2NjY2NjYiIGJvcmRlcm9wYWNpdHk9IjEiIGZpdC1tYXJnaW4tYm90dG9tPSIwIiBmaXQtbWFyZ2luLWxlZnQ9IjAiIGZpdC1tYXJnaW4tcmlnaHQ9IjAiIGZpdC1tYXJnaW4tdG9wPSIwIiBncmlkdG9sZXJhbmNlPSIxMCIgZ3VpZGV0b2xlcmFuY2U9IjEwIiBpZD0ibmFtZWR2aWV3NDc1MjEiIGlua3NjYXBlOmN1cnJlbnQtbGF5ZXI9InN2ZzQ3NTE5IiBpbmtzY2FwZTpjeD0iMTguMjE4MTc2IiBpbmtzY2FwZTpjeT0iMjEuNjAxMzQ4IiBpbmtzY2FwZTpwYWdlb3BhY2l0eT0iMCIgaW5rc2NhcGU6cGFnZXNoYWRvdz0iMiIgaW5rc2NhcGU6d2luZG93LWhlaWdodD0iMTAxNyIgaW5rc2NhcGU6d2luZG93LW1heGltaXplZD0iMSIgaW5rc2NhcGU6d2luZG93LXdpZHRoPSIxOTIwIiBpbmtzY2FwZTp3aW5kb3cteD0iLTgiIGlua3NjYXBlOndpbmRvdy15PSItOCIgaW5rc2NhcGU6em9vbT0iMTUuMTY4OTU5IiBvYmplY3R0b2xlcmFuY2U9IjEwIiBwYWdlY29sb3I9IiNmZmZmZmYiIHNob3dncmlkPSJmYWxzZSI+JiN4YTsJPC9zb2RpcG9kaTpuYW1lZHZpZXc+JiN4YTs8ZyBpZD0iZzQ3NTE3IiB0cmFuc2Zvcm09InRyYW5zbGF0ZSgtMTAuOTI4NjI5LC0xLjE5NDYzKSI+JiN4YTsJPHRpdGxlIGlkPSJ0aXRsZTQ3NDg3Ij5QYWdlLTE8L3RpdGxlPiYjeGE7CTxnIGlkPSJncm91cDQ1MjUtMSIgdHJhbnNmb3JtPSJ0cmFuc2xhdGUoMTAuOTI4NiwtNS4yMzUzNykiPiYjeGE7CQk8dGl0bGUgaWQ9InRpdGxlNDc0ODkiPkdlbmVyaWMgRmlsZSAjMTwvdGl0bGU+JiN4YTsJCTxnIGlkPSJzaGFwZTQ1MjYtMiIgdHJhbnNmb3JtPSJ0cmFuc2xhdGUoNC41NTQ1NikiPiYjeGE7CQkJPHRpdGxlIGlkPSJ0aXRsZTQ3NDkxIj5TaGVldC40NTI2PC90aXRsZT4mI3hhOwkJCTxwYXRoIGlkPSJwYXRoNDc0OTMiIGlua3NjYXBlOmNvbm5lY3Rvci1jdXJ2YXR1cmU9IjAiIHN0eWxlPSJmaWxsOiNFMkU1RTc7IiBkPSJNMi4yOCw2LjQzQzEuMDIsNi40MywwLDcuNDYsMCw4LjcxdjMxLjg4ICAgICBjMCwxLjI1LDEuMDIsMi4yOCwyLjI4LDIuMjhoMjIuNzdjMS4yNSwwLDIuMjgtMS4wMywyLjI4LTIuMjhWMTUuNTRsLTkuMTEtOS4xMUgyLjI4eiIvPiYjeGE7CQk8L2c+JiN4YTsJCTxnIGlkPSJzaGFwZTQ1MjctNCIgdHJhbnNmb3JtPSJ0cmFuc2xhdGUoMjIuNzcyOCwtMjcuMzI3NCkiPiYjeGE7CQkJPHRpdGxlIGlkPSJ0aXRsZTQ3NDk2Ij5TaGVldC40NTI3PC90aXRsZT4mI3hhOwkJCTxwYXRoIGlkPSJwYXRoNDc0OTgiIGlua3NjYXBlOmNvbm5lY3Rvci1jdXJ2YXR1cmU9IjAiIHN0eWxlPSJmaWxsOiNCMEI3QkQ7IiBkPSJNMi4yOCw0Mi44N2g2LjgzTDAsMzMuNzZ2Ni44MyAgICAgQzAsNDEuODQsMS4wMiw0Mi44NywyLjI4LDQyLjg3eiIvPiYjeGE7CQk8L2c+JiN4YTsJCTxnIGlkPSJzaGFwZTQ1MjgtNiIgdHJhbnNmb3JtPSJ0cmFuc2xhdGUoMjUuMDUwMSwtMjAuNDk1NSkiPiYjeGE7CQkJPHRpdGxlIGlkPSJ0aXRsZTQ3NTAxIj5TaGVldC40NTI4PC90aXRsZT4mI3hhOwkJCTxwYXRoIGlkPSJwYXRoNDc1MDMiIGlua3NjYXBlOmNvbm5lY3Rvci1jdXJ2YXR1cmU9IjAiIHN0eWxlPSJmaWxsOiNDQUQxRDg7IiBkPSJNNi44Myw0Mi44N0wwLDM2LjA0aDYuODNWNDIuODd6Ii8+JiN4YTsJCTwvZz4mI3hhOwkJPGcgaWQ9InNoYXBlNDUyOS04IiB0cmFuc2Zvcm09InRyYW5zbGF0ZSgwLC01LjY5MzIpIj4mI3hhOwkJCTx0aXRsZSBpZD0idGl0bGU0NzUwNiI+U2hlZXQuNDUyOTwvdGl0bGU+JiN4YTsJCQk8cGF0aCBpZD0icGF0aDQ3NTA4IiBpbmtzY2FwZTpjb25uZWN0b3ItY3VydmF0dXJlPSIwIiBzdHlsZT0iZmlsbDojOTc3N0E4OyIgZD0iTTI3LjMzLDQxLjczYzAsMC42Mi0wLjUyLDEuMTQtMS4xNCwxLjE0SDEuMTQgICAgIEMwLjUxLDQyLjg3LDAsNDIuMzUsMCw0MS43M1YzMC4zNGMwLTAuNjIsMC41MS0xLjE0LDEuMTQtMS4xNGgyNS4wNWMwLjYyLDAsMS4xNCwwLjUyLDEuMTQsMS4xNEwyNy4zMyw0MS43M3oiLz4mI3hhOwkJPC9nPiYjeGE7CQk8ZyBpZD0ic2hhcGU0NTMwLTEwIiB0cmFuc2Zvcm09InRyYW5zbGF0ZSg0LjU1NDU2LC00LjU1NDU2KSI+JiN4YTsJCQk8dGl0bGUgaWQ9InRpdGxlNDc1MTEiPlNoZWV0LjQ1MzA8L3RpdGxlPiYjeGE7CQkJPHBhdGggaWQ9InBhdGg0NzUxMyIgaW5rc2NhcGU6Y29ubmVjdG9yLWN1cnZhdHVyZT0iMCIgc3R5bGU9ImZpbGw6I0NBRDFEODsiIGQ9Ik0yMS42Myw0MS43M0gwdjEuMTRoMjEuNjMgICAgIGMwLjYzLDAsMS4xNC0wLjUyLDEuMTQtMS4xNHYtMS4xNEMyMi43Nyw0MS4yMiwyMi4yNiw0MS43MywyMS42Myw0MS43M3oiLz4mI3hhOwkJPC9nPiYjeGE7CTwvZz4mI3hhOzwvZz4mI3hhOzwvc3ZnPg==;fontStyle=0;imageBackground=none;fontColor=#5C068C;" parent="FZ2FZ6DYbbDXQQriU7j4-1" vertex="1">
                    <mxGeometry x="80" y="138.21" width="71.11" height="80" as="geometry"/>
                </mxCell>
                <mxCell id="23" value="Solution" style="shape=image;verticalLabelPosition=bottom;labelBackgroundColor=none;verticalAlign=top;aspect=fixed;imageAspect=0;image=data:image/svg+xml,PHN2ZyB4bWxuczpjYz0iaHR0cDovL2NyZWF0aXZlY29tbW9ucy5vcmcvbnMjIiB4bWxuczpkYz0iaHR0cDovL3B1cmwub3JnL2RjL2VsZW1lbnRzLzEuMS8iIHhtbG5zOmlua3NjYXBlPSJodHRwOi8vd3d3Lmlua3NjYXBlLm9yZy9uYW1lc3BhY2VzL2lua3NjYXBlIiB4bWxuczpyZGY9Imh0dHA6Ly93d3cudzMub3JnLzE5OTkvMDIvMjItcmRmLXN5bnRheC1ucyMiIHhtbG5zOnNvZGlwb2RpPSJodHRwOi8vc29kaXBvZGkuc291cmNlZm9yZ2UubmV0L0RURC9zb2RpcG9kaS0wLmR0ZCIgeG1sbnM6c3ZnPSJodHRwOi8vd3d3LnczLm9yZy8yMDAwL3N2ZyIgeG1sbnM9Imh0dHA6Ly93d3cudzMub3JnLzIwMDAvc3ZnIiB4bWxuczp4bGluaz0iaHR0cDovL3d3dy53My5vcmcvMTk5OS94bGluayIgdmVyc2lvbj0iMS4xIiBpZD0ic3ZnNDc1MTkiIGlua3NjYXBlOnZlcnNpb249IjAuOTIuMyAoMjQwNTU0NiwgMjAxOC0wMy0xMSkiIHNvZGlwb2RpOmRvY25hbWU9ImdlbmVyaWNfZmlsZV8xLnN2ZyIgeD0iMHB4IiB5PSIwcHgiIHZpZXdCb3g9IjAgMCAzMS44OCAzNi40NCIgc3R5bGU9ImVuYWJsZS1iYWNrZ3JvdW5kOm5ldyAwIDAgMzEuODggMzYuNDQ7IiB4bWw6c3BhY2U9InByZXNlcnZlIj4mI3hhOzxzb2RpcG9kaTpuYW1lZHZpZXcgYm9yZGVyY29sb3I9IiM2NjY2NjYiIGJvcmRlcm9wYWNpdHk9IjEiIGZpdC1tYXJnaW4tYm90dG9tPSIwIiBmaXQtbWFyZ2luLWxlZnQ9IjAiIGZpdC1tYXJnaW4tcmlnaHQ9IjAiIGZpdC1tYXJnaW4tdG9wPSIwIiBncmlkdG9sZXJhbmNlPSIxMCIgZ3VpZGV0b2xlcmFuY2U9IjEwIiBpZD0ibmFtZWR2aWV3NDc1MjEiIGlua3NjYXBlOmN1cnJlbnQtbGF5ZXI9InN2ZzQ3NTE5IiBpbmtzY2FwZTpjeD0iMTguMjE4MTc2IiBpbmtzY2FwZTpjeT0iMjEuNjAxMzQ4IiBpbmtzY2FwZTpwYWdlb3BhY2l0eT0iMCIgaW5rc2NhcGU6cGFnZXNoYWRvdz0iMiIgaW5rc2NhcGU6d2luZG93LWhlaWdodD0iMTAxNyIgaW5rc2NhcGU6d2luZG93LW1heGltaXplZD0iMSIgaW5rc2NhcGU6d2luZG93LXdpZHRoPSIxOTIwIiBpbmtzY2FwZTp3aW5kb3cteD0iLTgiIGlua3NjYXBlOndpbmRvdy15PSItOCIgaW5rc2NhcGU6em9vbT0iMTUuMTY4OTU5IiBvYmplY3R0b2xlcmFuY2U9IjEwIiBwYWdlY29sb3I9IiNmZmZmZmYiIHNob3dncmlkPSJmYWxzZSI+JiN4YTsJPC9zb2RpcG9kaTpuYW1lZHZpZXc+JiN4YTs8ZyBpZD0iZzQ3NTE3IiB0cmFuc2Zvcm09InRyYW5zbGF0ZSgtMTAuOTI4NjI5LC0xLjE5NDYzKSI+JiN4YTsJPHRpdGxlIGlkPSJ0aXRsZTQ3NDg3Ij5QYWdlLTE8L3RpdGxlPiYjeGE7CTxnIGlkPSJncm91cDQ1MjUtMSIgdHJhbnNmb3JtPSJ0cmFuc2xhdGUoMTAuOTI4NiwtNS4yMzUzNykiPiYjeGE7CQk8dGl0bGUgaWQ9InRpdGxlNDc0ODkiPkdlbmVyaWMgRmlsZSAjMTwvdGl0bGU+JiN4YTsJCTxnIGlkPSJzaGFwZTQ1MjYtMiIgdHJhbnNmb3JtPSJ0cmFuc2xhdGUoNC41NTQ1NikiPiYjeGE7CQkJPHRpdGxlIGlkPSJ0aXRsZTQ3NDkxIj5TaGVldC40NTI2PC90aXRsZT4mI3hhOwkJCTxwYXRoIGlkPSJwYXRoNDc0OTMiIGlua3NjYXBlOmNvbm5lY3Rvci1jdXJ2YXR1cmU9IjAiIHN0eWxlPSJmaWxsOiNFMkU1RTc7IiBkPSJNMi4yOCw2LjQzQzEuMDIsNi40MywwLDcuNDYsMCw4LjcxdjMxLjg4ICAgICBjMCwxLjI1LDEuMDIsMi4yOCwyLjI4LDIuMjhoMjIuNzdjMS4yNSwwLDIuMjgtMS4wMywyLjI4LTIuMjhWMTUuNTRsLTkuMTEtOS4xMUgyLjI4eiIvPiYjeGE7CQk8L2c+JiN4YTsJCTxnIGlkPSJzaGFwZTQ1MjctNCIgdHJhbnNmb3JtPSJ0cmFuc2xhdGUoMjIuNzcyOCwtMjcuMzI3NCkiPiYjeGE7CQkJPHRpdGxlIGlkPSJ0aXRsZTQ3NDk2Ij5TaGVldC40NTI3PC90aXRsZT4mI3hhOwkJCTxwYXRoIGlkPSJwYXRoNDc0OTgiIGlua3NjYXBlOmNvbm5lY3Rvci1jdXJ2YXR1cmU9IjAiIHN0eWxlPSJmaWxsOiNCMEI3QkQ7IiBkPSJNMi4yOCw0Mi44N2g2LjgzTDAsMzMuNzZ2Ni44MyAgICAgQzAsNDEuODQsMS4wMiw0Mi44NywyLjI4LDQyLjg3eiIvPiYjeGE7CQk8L2c+JiN4YTsJCTxnIGlkPSJzaGFwZTQ1MjgtNiIgdHJhbnNmb3JtPSJ0cmFuc2xhdGUoMjUuMDUwMSwtMjAuNDk1NSkiPiYjeGE7CQkJPHRpdGxlIGlkPSJ0aXRsZTQ3NTAxIj5TaGVldC40NTI4PC90aXRsZT4mI3hhOwkJCTxwYXRoIGlkPSJwYXRoNDc1MDMiIGlua3NjYXBlOmNvbm5lY3Rvci1jdXJ2YXR1cmU9IjAiIHN0eWxlPSJmaWxsOiNDQUQxRDg7IiBkPSJNNi44Myw0Mi44N0wwLDM2LjA0aDYuODNWNDIuODd6Ii8+JiN4YTsJCTwvZz4mI3hhOwkJPGcgaWQ9InNoYXBlNDUyOS04IiB0cmFuc2Zvcm09InRyYW5zbGF0ZSgwLC01LjY5MzIpIj4mI3hhOwkJCTx0aXRsZSBpZD0idGl0bGU0NzUwNiI+U2hlZXQuNDUyOTwvdGl0bGU+JiN4YTsJCQk8cGF0aCBpZD0icGF0aDQ3NTA4IiBpbmtzY2FwZTpjb25uZWN0b3ItY3VydmF0dXJlPSIwIiBzdHlsZT0iZmlsbDojOTc3N0E4OyIgZD0iTTI3LjMzLDQxLjczYzAsMC42Mi0wLjUyLDEuMTQtMS4xNCwxLjE0SDEuMTQgICAgIEMwLjUxLDQyLjg3LDAsNDIuMzUsMCw0MS43M1YzMC4zNGMwLTAuNjIsMC41MS0xLjE0LDEuMTQtMS4xNGgyNS4wNWMwLjYyLDAsMS4xNCwwLjUyLDEuMTQsMS4xNEwyNy4zMyw0MS43M3oiLz4mI3hhOwkJPC9nPiYjeGE7CQk8ZyBpZD0ic2hhcGU0NTMwLTEwIiB0cmFuc2Zvcm09InRyYW5zbGF0ZSg0LjU1NDU2LC00LjU1NDU2KSI+JiN4YTsJCQk8dGl0bGUgaWQ9InRpdGxlNDc1MTEiPlNoZWV0LjQ1MzA8L3RpdGxlPiYjeGE7CQkJPHBhdGggaWQ9InBhdGg0NzUxMyIgaW5rc2NhcGU6Y29ubmVjdG9yLWN1cnZhdHVyZT0iMCIgc3R5bGU9ImZpbGw6I0NBRDFEODsiIGQ9Ik0yMS42Myw0MS43M0gwdjEuMTRoMjEuNjMgICAgIGMwLjYzLDAsMS4xNC0wLjUyLDEuMTQtMS4xNHYtMS4xNEMyMi43Nyw0MS4yMiwyMi4yNiw0MS43MywyMS42Myw0MS43M3oiLz4mI3hhOwkJPC9nPiYjeGE7CTwvZz4mI3hhOzwvZz4mI3hhOzwvc3ZnPg==;fontStyle=0;imageBackground=none;fontColor=#5C068C;" parent="FZ2FZ6DYbbDXQQriU7j4-1" vertex="1">
                    <mxGeometry x="320" y="138.21" width="71.11" height="80" as="geometry"/>
                </mxCell>
                <mxCell id="24" value="Entity movement" style="shape=image;imageAspect=0;aspect=fixed;verticalLabelPosition=bottom;verticalAlign=top;strokeColor=default;fillColor=default;image=data:image/svg+xml,PHN2ZyB4bWxucz0iaHR0cDovL3d3dy53My5vcmcvMjAwMC9zdmciIGlkPSJMYXllcl8xIiB2ZXJzaW9uPSIxLjEiIHZpZXdCb3g9IjcuOTQyMDM0MjQ0NTM3MzUzNSAwLjk3MzkzMzIxOTkwOTY2OCAzNC4xMTU5Mjg2NDk5MDIzNDQgNDguMDI1ODE0MDU2Mzk2NDg0IiB4bWw6c3BhY2U9InByZXNlcnZlIiBlbmFibGUtYmFja2dyb3VuZD0ibmV3IDAgMCA1MCA1MCIgd2lkdGg9IjM0LjExNTkyODY0OTkwMjM0NCIgaGVpZ2h0PSI0OC4wMjU4MTQwNTYzOTY0ODQiPjxnIGVuYWJsZS1iYWNrZ3JvdW5kPSJuZXciPjxwYXRoIGQ9Ik00Mi4wNDcgMzUuMTN2Ni45ODdjLS4wMDcgMS43NTktMS42NTcgMy41MTUtNC45NTQgNC44NTctNi42MzUgMi43MDEtMTcuNDMgMi43MDEtMjQuMTA4IDAtMy4zNi0xLjM2LTUuMDQtMy4xNDQtNS4wMzItNC45MjV2LTYuOTg3Yy0uMDA3IDEuNzgxIDEuNjcxIDMuNTY2IDUuMDMyIDQuOTI1IDYuNjc5IDIuNzAxIDE3LjQ3MyAyLjcwMSAyNC4xMDggMCAzLjI5Ny0xLjM0MiA0Ljk0Ny0zLjA5OCA0Ljk1NC00Ljg1N3oiIGZpbGw9IiM4NjJjYmEiIGNsYXNzPSJmaWxsLTc5OGZmZSIvPjxlbGxpcHNlIGN4PSIyNSIgY3k9IjM1LjA5NiIgcng9IjYuOTE3IiByeT0iMTcuMDQ3IiB0cmFuc2Zvcm09InJvdGF0ZSgtODkuOTA5IDI1IDM1LjA5NikiIGZpbGw9IiNjMzllZWIiIGNsYXNzPSJmaWxsLThjYTFmZCIvPjxwYXRoIGQ9Ik00MS42MjMgMzMuNjA4Yy40MSAxLjkxOC0xLjE3NiAzLjg5LTQuNzggNS4zNTctNi40OTggMi42NDUtMTcuMDY5IDIuNjQ2LTIzLjYxIDAtMy42NDYtMS40NzUtNS4yNjQtMy40Ni00Ljg2Mi01LjM4Ny0xLjIxNiAyLjIzNS4zMTMgNC42NyA0LjYxNCA2LjQxIDYuNjc5IDIuNyAxNy40NzMgMi43IDI0LjEwOCAwIDQuMjU0LTEuNzMyIDUuNzUxLTQuMTUzIDQuNTMtNi4zOHoiIGZpbGw9IiNiZGMyYzkiIGNsYXNzPSJmaWxsLWI3YzVmZCIvPjwvZz48ZyBlbmFibGUtYmFja2dyb3VuZD0ibmV3Ij48cGF0aCBkPSJNNDAuNzEzIDI1LjgzNHY2LjQ0Yy0uMDA3IDEuNjItMS41MjggMy4yNC00LjU2NiA0LjQ3Ny02LjExNiAyLjQ5LTE2LjA2NiAyLjQ5LTIyLjIyMSAwLTMuMDk4LTEuMjUzLTQuNjQ2LTIuODk4LTQuNjM5LTQuNTR2LTYuNDRjLS4wMDcgMS42NDIgMS41NCAzLjI4NyA0LjYzOSA0LjU0IDYuMTU1IDIuNDkgMTYuMTA1IDIuNDkgMjIuMjIgMCAzLjA0LTEuMjM3IDQuNTYtMi44NTYgNC41NjctNC40Nzd6IiBmaWxsPSIjNWMwNjhjIiBjbGFzcz0iZmlsbC0zOTU1ZDEiLz48cGF0aCBkPSJNNDIuMDQ3IDIxLjU0djYuOTg4Yy0uMDA3IDEuNzU5LTEuNjU3IDMuNTE1LTQuOTU0IDQuODU3LTYuNjM1IDIuNzAxLTE3LjQzIDIuNzAxLTI0LjEwOCAwLTMuMzYtMS4zNi01LjA0LTMuMTQ0LTUuMDMyLTQuOTI1di02Ljk4N2MtLjAwNyAxLjc4MSAxLjY3MSAzLjU2NiA1LjAzMiA0LjkyNSA2LjY3OSAyLjcwMSAxNy40NzMgMi43MDEgMjQuMTA4IDAgMy4yOTctMS4zNDIgNC45NDctMy4wOTggNC45NTQtNC44NTd6IiBmaWxsPSIjODYyY2JhIiBjbGFzcz0iZmlsbC03OThmZmUiLz48ZWxsaXBzZSBjeD0iMjUiIGN5PSIyMS41MDciIHJ4PSI2LjkxNyIgcnk9IjE3LjA0NyIgdHJhbnNmb3JtPSJyb3RhdGUoLTg5LjkwOSAyNSAyMS41MDcpIiBmaWxsPSIjYzM5ZWViIiBjbGFzcz0iZmlsbC04Y2ExZmQiLz48cGF0aCBkPSJNNDEuNjIzIDIwLjAyYy40MSAxLjkxNy0xLjE3NiAzLjg4OS00Ljc4IDUuMzU2LTYuNDk4IDIuNjQ1LTE3LjA2OSAyLjY0Ni0yMy42MSAwLTMuNjQ2LTEuNDc1LTUuMjY0LTMuNDYtNC44NjItNS4zODctMS4yMTYgMi4yMzUuMzEzIDQuNjcgNC42MTQgNi40MSA2LjY3OSAyLjcgMTcuNDczIDIuNyAyNC4xMDggMCA0LjI1NC0xLjczMyA1Ljc1MS00LjE1MyA0LjUzLTYuMzh6IiBmaWxsPSIjYmRjMmM5IiBjbGFzcz0iZmlsbC1iN2M1ZmQiLz48L2c+PGcgZW5hYmxlLWJhY2tncm91bmQ9Im5ldyI+PHBhdGggZD0iTTQwLjcxMyAxMi4yNDV2Ni40NGMtLjAwNyAxLjYyLTEuNTI4IDMuMjQtNC41NjYgNC40NzctNi4xMTYgMi40OS0xNi4wNjYgMi40OS0yMi4yMjEgMC0zLjA5OC0xLjI1My00LjY0Ni0yLjg5OC00LjYzOS00LjU0di02LjQ0Yy0uMDA3IDEuNjQyIDEuNTQgMy4yODcgNC42MzkgNC41NCA2LjE1NSAyLjQ5IDE2LjEwNSAyLjQ5IDIyLjIyIDAgMy4wNC0xLjIzNyA0LjU2LTIuODU2IDQuNTY3LTQuNDc3eiIgZmlsbD0iIzVjMDY4YyIgY2xhc3M9ImZpbGwtMzk1NWQxIi8+PHBhdGggZD0iTTQyLjA0NyA3Ljk1MnY2Ljk4N2MtLjAwNyAxLjc1OC0xLjY1NyAzLjUxNS00Ljk1NCA0Ljg1Ny02LjYzNSAyLjcwMS0xNy40MyAyLjcwMS0yNC4xMDggMC0zLjM2LTEuMzYtNS4wNC0zLjE0NC01LjAzMi00LjkyNVY3Ljg4NGMtLjAwNyAxLjc4MSAxLjY3MSAzLjU2NiA1LjAzMiA0LjkyNSA2LjY3OSAyLjcwMSAxNy40NzMgMi43MDEgMjQuMTA4IDAgMy4yOTctMS4zNDIgNC45NDctMy4wOTggNC45NTQtNC44NTd6IiBmaWxsPSIjODYyY2JhIiBjbGFzcz0iZmlsbC03OThmZmUiLz48ZWxsaXBzZSBjeD0iMjUiIGN5PSI3LjkxOCIgcng9IjYuOTE3IiByeT0iMTcuMDQ3IiB0cmFuc2Zvcm09InJvdGF0ZSgtODkuOTA5IDI1IDcuOTE4KSIgZmlsbD0iI2MzOWVlYiIgY2xhc3M9ImZpbGwtOGNhMWZkIi8+PHBhdGggZD0iTTQxLjYyMyA2LjQzYy40MSAxLjkxOC0xLjE3NiAzLjg5LTQuNzggNS4zNTctNi40OTggMi42NDUtMTcuMDY5IDIuNjQ2LTIzLjYxIDBDOS41ODggMTAuMzEyIDcuOTcgOC4zMjcgOC4zNzIgNi40Yy0xLjIxNiAyLjIzNS4zMTMgNC42NyA0LjYxNCA2LjQwOSA2LjY3OSAyLjcwMiAxNy40NzMgMi43MDEgMjQuMTA4IDAgNC4yNTQtMS43MzIgNS43NTEtNC4xNTIgNC41My02LjM3OXoiIGZpbGw9IiNiZGMyYzkiIGNsYXNzPSJmaWxsLWI3YzVmZCIvPjwvZz48L3N2Zz4=;labelBackgroundColor=none;fontColor=#5C068C;labelPosition=center;align=center;fontSize=11;spacing=10;" parent="FZ2FZ6DYbbDXQQriU7j4-1" vertex="1">
                    <mxGeometry x="565.21" y="129.11" width="69.57" height="98.21" as="geometry"/>
                </mxCell>
                <mxCell id="26" style="edgeStyle=none;html=1;entryX=0;entryY=0.75;entryDx=0;entryDy=0;strokeColor=#5C068C;fontColor=#5C068C;endArrow=block;endFill=1;" parent="FZ2FZ6DYbbDXQQriU7j4-1" source="25" target="13" edge="1">
                    <mxGeometry relative="1" as="geometry"/>
                </mxCell>
                <mxCell id="25" value="Simulation model" style="outlineConnect=0;dashed=0;verticalLabelPosition=bottom;verticalAlign=top;align=center;html=1;shape=mxgraph.aws3.android;fillColor=#5C068C;gradientColor=none;labelPosition=center;fontColor=#5C068C;" parent="FZ2FZ6DYbbDXQQriU7j4-1" vertex="1">
                    <mxGeometry x="200" y="340" width="80" height="80" as="geometry"/>
                </mxCell>
                <mxCell id="28" value="Simulation-based approach" style="rounded=0;whiteSpace=wrap;html=1;fillColor=#e1d5e7;strokeColor=#5C068C;fontColor=#5C068C;" parent="FZ2FZ6DYbbDXQQriU7j4-1" vertex="1">
                    <mxGeometry x="80" y="280" width="320" height="40" as="geometry"/>
                </mxCell>
                <mxCell id="29" value="Optimization technique" style="outlineConnect=0;dashed=0;verticalLabelPosition=bottom;verticalAlign=top;align=center;html=1;shape=mxgraph.aws3.android;fillColor=#5C068C;gradientColor=none;labelPosition=center;fontColor=#5C068C;" vertex="1" parent="FZ2FZ6DYbbDXQQriU7j4-1">
                    <mxGeometry x="200" y="138.21" width="80" height="80" as="geometry"/>
                </mxCell>
            </root>
        </mxGraphModel>
    </diagram>
</mxfile>